
<global>
amp_veltrack=0
ampeg_release=0.85
</global>

<group>
group_label=Group_0-42
lpc_hicc1=42
lpc_locc1=0

<region>
hikey=B3
hivel=127
lokey=A#3
lovel=0
lpc=WxqAQm+hbcP3Z7RDMheMw8Ji90J7/07CGS8AQmdK7cCrkMjAdqo/P+zwA0Ed1CfBLclTQAE11ECO2enArWkBQOpEZL82pEQ/AsQFP7vc1D+3SjPA7LClv79JekBitOC/
lpc_rms=-46.18
pitch_keycenter=A#3
sample=Trumpet_Marcato_Whole_PP_A#3.opus
tune=+4
</region>

<region>
hikey=B4
hivel=127
lokey=A#4
lovel=0
lpc=73KeQuQhm8PkcglECm0WxKDp9EMNhKnDN+VKQ8Fe1MKqv4RC8bZgwpofMkKjgxLCZd0QQiQfBcIMS/NBfqzDwS6eEUGEag5AeWclwNlW8D/tiu6+gvq+vl3yBMCc6xBA
lpc_rms=-38.24
pitch_keycenter=A#4
sample=Trumpet_Marcato_Whole_PP_A#4.opus
tune=-24
</region>

<region>
hikey=B5
hivel=127
lokey=A#5
lovel=0
lpc=DLpMQvr5zcIpxwVD1HMFw85a8kKaPcDCVGWQQtCAP8KOmQ5CuHXdwSu+zUE1SpbBKWCCQa4LQcH/wlNBRoIywVEMYEFkwIrB0WbzQaU9J8KxVVZCYElbwoUyRULQJ+TB
lpc_rms=-34.80
pitch_keycenter=A#5
sample=Trumpet_Marcato_Whole_PP_A#5.opus
tune=-48
</region>

<region>
hikey=C#4
hivel=127
lokey=C4
lovel=0
lpc=GGlzQnnJW8PtOqRDsTOEw9YFEEPtj6TC8iE9QjsIQcEhlzjAG89NwM1+FkH/NqvAn4K6PyV3xb/TkKu9aOasP/la6L/a52dAGbmfv64Yn8BYGblAe7Z4v3oqyL/Pix0/
lpc_rms=-46.02
sample=Trumpet_Marcato_Whole_PP_C4.opus
tune=+12
</region>

<region>
hikey=C#5
hivel=127
lokey=C5
lovel=0
lpc=oBziQmt338NtXUJEUKpFxMHqB0RPGI7Df4H6QmeHisI6MI5CxQuHwu+JUUKAqjvCKAEAQgBIZ0EfGVfCyKMsQqID7MAefcA+GUjvwVu7ikKeacnCOybQQjaNhMJ5EZxB
lpc_rms=-37.40
pitch_keycenter=C5
sample=Trumpet_Marcato_Whole_PP_C5.opus
tune=-3
</region>

<region>
hikey=F6
hivel=127
lokey=C6
lovel=0
lpc=IFWlQo92NMPaR1hDm7w6w8K2DUOZHLvC/i6FQl7RIcLlUglC3iXjwWwqCkJ5ddbBJnrCQf11WcHeN2JB4VO1wCCY6kDemUrAYuZUQYPSecGOCMdBrA6/wUb4v8CgJIVB
lpc_rms=-33.22
pitch_keycenter=C6
sample=Trumpet_Marcato_Whole_PP_C6.opus
tune=-37
</region>

<region>
hikey=D#4
hivel=127
lokey=D4
lovel=0
lpc=iAZ4Qn6aZsM37bZDyS+lw/ZIU0NtgPvCmMaSQvlhCsJ52CxBO50/wGMB7UCWeQ/BMOsWQL0IcUCzernAavziQOQS4cB0QZpA9HqtwOtCTEH/E6DBIZOjQUxBV8Eda4lA
lpc_rms=-44.34
pitch_keycenter=D4
sample=Trumpet_Marcato_Whole_PP_D4.opus
tune=-5
</region>

<region>
hikey=D#5
hivel=127
lokey=D5
lovel=0
lpc=74umQkNcnsO3AwdELiEMxKVY2UN9k5TDoCQ0Q0+wtsJ8A1lC0MJtwinTjEIQ/07C4PY7QK9OK0LgeHnCsdx+Qi0oW8LcUxlCifTCwdki8kElkl7CJ+eSQuPnXMLGv5NB
lpc_rms=-38.28
pitch_keycenter=D5
sample=Trumpet_Marcato_Whole_PP_D5.opus
tune=-3
</region>

<region>
hikey=F4
hivel=127
lokey=E4
lovel=0
lpc=j9q6Qsu0rcNWxgVE3F/kw6A7jENMoy/DyTbJQrnO2cHHpxXBZX+Xvv9rqkFuJqPBIUYMQXeBHT/aFhHBsm3iQCN6GUBtZdfAW12dQI7q0kDtqMXBNxr3QffckcGkDIVA
lpc_rms=-41.06
pitch_keycenter=E4
sample=Trumpet_Marcato_Whole_PP_E4.opus
tune=-8
</region>

<region>
hikey=F5
hivel=127
lokey=E5
lovel=0
lpc=pv3HQu/frcPVOgxETOsKxEoly0OpkIDDojQdQ02Bx8Lqa5RCj0hgwsidKUK93gXCx6jmQZrwksFUuBK/aH21QX/v8MFKUPpBhYgawh7ObULU4rnCe/XxQn4OwcKmiA9C
lpc_rms=-37.00
pitch_keycenter=E5
sample=Trumpet_Marcato_Whole_PP_E5.opus
tune=-28
</region>

<region>
hikey=G3
hivel=127
lokey=F#3
lovel=0
lpc=gJRDQkqEIsMj+lRD+HMIwyWdVUKsfQHCPra5QaFgi8DtilrAOs5gv+SyMkCkKNA/MzZvwJIqfr5mBnhA/3tGwLnpoT/JAGg+3TXVv1z16D+bNce/4awTQPwREsCOQ18/
lpc_rms=-51.10
pitch_keycenter=F#3
sample=Trumpet_Marcato_Whole_PP_F#3.opus
tune=+12
</region>

<region>
hikey=G4
hivel=127
lokey=F#4
lovel=0
lpc=fsW1QgSZqcPweQhEy54AxC0zs0NbqmnDimcQQ/AgjMLhqpxBRKjQPyvfG8CoobC+k7phv521dkCTtS3AHVENPynPVL9+50k/bvi3P3ULOD+5Ej7BNmWfQTmoTsGQ2DFA
lpc_rms=-41.13
pitch_keycenter=F#4
sample=Trumpet_Marcato_Whole_PP_F#4.opus
tune=-11
</region>

<region>
hikey=G5
hivel=127
lokey=F#5
lovel=0
lpc=mfLeQsngs8N/TgpEyr4DxHneuUO2v1nDPkHmQkrsZ8Ij3A9Ceoa/wfEr3EEUb9LB4jrqQJ9+bkGPE2/BZZJ6QckMh8Cp5AzCIyagQnuBt8JTur5C4tmvwpquUkKwfRPB
lpc_rms=-37.14
pitch_keycenter=F#5
sample=Trumpet_Marcato_Whole_PP_F#5.opus
tune=-33
</region>

<region>
hikey=A3
hivel=127
lokey=G#3
lovel=0
lpc=MeSCQmf8YMNRKZdDr+5Cw80vjkLxvBHC2gSvQR6XKL89b6nAvx8IQKsvKkDcNobAm/5Cv/feuD86hJBAeVutwF47nj/LljG/Cza4P6hSlj9tiL2/FrJHwJdHmUDLQt+/
lpc_rms=-47.97
pitch_keycenter=G#3
sample=Trumpet_Marcato_Whole_PP_G#3.opus
tune=-1
</region>

<region>
hikey=A4
hivel=127
lokey=G#4
lovel=0
lpc=z7QHQ9ss9cN5ojREgY4QxO+uo0O2N0zDUGwYQ8xJwMLx5gZCO/i7v5nApr9H08FAfmC4wAtkF8GBxq9B8T1dwUZK2r/wIW0/QKAjP2eL1kCqE8PAbmr0QLE/RsGEJsxA
lpc_rms=-39.35
pitch_keycenter=G#4
sample=Trumpet_Marcato_Whole_PP_G#4.opus
tune=-42
</region>

<region>
hikey=A5
hivel=127
lokey=G#5
lovel=0
lpc=4zgIQ51fusNhZwJEUdz6w1oNzkOvE5rDcNdZQwMTDcNgcbNCOCJfwsKYR0Ie9S3CyZsBQhx6VsGZJy5Bc9iCweIS5EGUnALCW8hWQk4RqsLQPe5CBTYCw69B3ULNJDXC
lpc_rms=-32.28
pitch_keycenter=G#5
sample=Trumpet_Marcato_Whole_PP_G#5.opus
tune=-51
</region>
</group>

<group>
group_label=Group_43-86
lpc_hicc1=86
lpc_locc1=43

<region>
hikey=B3
hivel=127
lokey=A#3
lovel=0
lpc=ZoQuQiy+D8P3DTpDpjrZwriyqUG7S+I+c4qdPyeQqUBwnsjA2X4SwOjz3ECEUEbATPRUv7TdB0BrLQrAVXhhP5zKcTw79lW/dBYLQH2A3b+AlO0/0dyawMZNr0DYegHA
lpc_rms=-44.35
pitch_keycenter=A#3
sample=Trumpet_Marcato_Whole_MF_A#3.opus
tune=+4
</region>

<region>
hikey=B4
hivel=127
lokey=A#4
lovel=0
lpc=uJvlQR1008IfSz5DGKFqw3OqbEPB8U/D1IIfQ5hR4MJtiqJCeEODwo16ZkIoFEzCJ3geQjYpmsF9bZXAwK/GQU+UG8LE+ixC60oQwo83xUHPxoDBjC46QVbD7sDjcTNA
lpc_rms=-34.92
pitch_keycenter=A#4
sample=Trumpet_Marcato_Whole_MF_A#4.opus
tune=-15
</region>

<region>
hikey=B5
hivel=127
lokey=A#5
lovel=0
lpc=uOAaQkqMesLZMJlCk5GGwtMBb0JubyfC/GkJQp85r8GvtKNB7xBEwacpWkFoSOjAmIIYQRFXf8BNn/9AwHWNwMsiF0FWy8nAGylRQdq2VcHlpLpBzHrCwfGO60Ek6ZPB
lpc_rms=-29.64
pitch_keycenter=A#5
sample=Trumpet_Marcato_Whole_MF_A#5.opus
tune=-65
</region>

<region>
hikey=C#4
hivel=127
lokey=C4
lovel=0
lpc=YNAmQvcRHsO7rYVD4/6Iw9CXTkPMQwfD9BGmQtJ0UMIgzQ5CVbW2wb8JYkEFthnBuarNQNOuucDWns1AEUNkwEkoBMBVrGVA76eCQKcxb8GsS5VBLy1uweVRBUGOMxzA
lpc_rms=-44.89
sample=Trumpet_Marcato_Whole_MF_C4.opus
tune=+13
</region>

<region>
hikey=C#5
hivel=127
lokey=C5
lovel=0
lpc=CLK1QYUlkMI0YtVCfs3Zwo+kwkJnFqDCtgJsQpSJIML2MNxBE/SjwcIFk0GPlJzB+0+bQdcNkMGrEaJBl4q7wb2mrkGwuFDBfRlyP093/kCPzSTBd2X8QJnRg8C0Zrc/
lpc_rms=-33.67
pitch_keycenter=C5
sample=Trumpet_Marcato_Whole_MF_C5.opus
tune=-18
</region>

<region>
hikey=F6
hivel=127
lokey=C6
lovel=0
lpc=Xi0CQjuMY8JrFIBCxTNawhEPTEJ7AhjCks8SQsr418GiC+hBObeuwSv4wEHq3nnBhCiIQUsLCMEUjiJBOnTCvxldJUAlGsJAnw6FwEXXTEHHAUHBHzWpQerm38ErxY9B
lpc_rms=-31.24
pitch_keycenter=C6
sample=Trumpet_Marcato_Whole_MF_C6.opus
tune=-22
</region>

<region>
hikey=D#4
hivel=127
lokey=D4
lovel=0
lpc=UUpxQrrcc8N7Td1DFnzxw8qKu0N3aXDDaW4HQ5ddhcLZ0RJCrenhwd+EqkENK4TBB2ahQRd+wsGDbJFBYeqxv9TNZ8F3dphBICkXwdVX+MANu4JBWZIFwSa+sb8rwQBA
lpc_rms=-39.30
pitch_keycenter=D4
sample=Trumpet_Marcato_Whole_MF_D4.opus
tune=-8
</region>

<region>
hikey=D#5
hivel=127
lokey=D5
lovel=0
lpc=VYDkQdjn1MKDxj9Dm5xnw5PoYEOPJkHD3X0ZQxHM6sJ2u7JCAsKAwnyRD0J7JATBxTQiwV7dsEHKOtbBLSimQVbHKsG9rmFAPITuPxDAjsCGzAxASHRZQBtMrMBYMyFA
lpc_rms=-34.84
pitch_keycenter=D5
sample=Trumpet_Marcato_Whole_MF_D5.opus
tune=-26
</region>

<region>
hikey=F4
hivel=127
lokey=E4
lovel=0
lpc=FviCQnhJgMPDOdxDGPPdw2uInEMOjzzD6cntQmtjtMJBGJtC2h2GwkzMeEIyQ1jC7CUIQlcDjcEmNTRB0lRvwDNLmMAvKO9A3MYhwLiEvMBtWiJBLOTYwN2K1T8QVdM8
lpc_rms=-38.47
pitch_keycenter=E4
sample=Trumpet_Marcato_Whole_MF_E4.opus
tune=-12
</region>

<region>
hikey=F5
hivel=127
lokey=E5
lovel=0
lpc=pYXoQbfovMI1NBZDaF4gw6nhDEMOD+PCuoatQlTefsLekkNCLVMZwrDN5UE/6YDBpg6vP5k1VkEQhcbBnHgGQmq+GsLRIydC070hwkScDEKBIu3ByjnTQbspl8Gib/NA
lpc_rms=-30.54
pitch_keycenter=E5
sample=Trumpet_Marcato_Whole_MF_E5.opus
tune=-31
</region>

<region>
hikey=G3
hivel=127
lokey=F#3
lovel=0
lpc=Pb/+QUzZ6sLmnkhDb2ZawyWzN0OwGQfDEKuxQr4QTcKBft9ByLqEwRyGUEE2xFXBNWReQZupQMG9ZORADVBavy01TcAlaG5AZaIjv5cCWMDu2IdAXDsMwCzQBj+d0J29
lpc_rms=-45.54
pitch_keycenter=F#3
sample=Trumpet_Marcato_Whole_MF_F#3.opus
tune=+17
</region>

<region>
hikey=G4
hivel=127
lokey=F#4
lovel=0
lpc=kgmNQv+3kcOLigZEUZsVxGkc9EMwMrbDJliIQyzcM8PODLdCJj4Hwp97DUEx2C7A0z2fQOxGU8Hrk8JB7g22wXGPS8BcSwFCkfUFwgcnhkFCr0bBPD6GQZ76NMGWhiVA
lpc_rms=-35.63
pitch_keycenter=F#4
sample=Trumpet_Marcato_Whole_MF_F#4.opus
tune=-17
</region>

<region>
hikey=G5
hivel=127
lokey=F#5
lovel=0
lpc=fnUQQp2ex8JchxRDU+Mfw/kpGkPmDQvDSKPxQlDGvsJc9ZVCVoh6wjZVYULtNy/CnJT5QTtKlsGBW3xBfPZ8we7cSEHar6+/x6c7wDy7gEA7/5PAjdI8QS6ddcHxDCtB
lpc_rms=-31.62
pitch_keycenter=F#5
sample=Trumpet_Marcato_Whole_MF_F#5.opus
tune=-26
</region>

<region>
hikey=A3
hivel=127
lokey=G#3
lovel=0
lpc=KTw9Qu5JMsOz8ZNDSbmPw1rLPkN2Ts7CPflaQtMb6sF45mhB/waxwBM4Sr/yVVI/zCenQGMy8cAuOB1ANsNGQNSIf8BKyTFAFdQEv29FJ8Bsmaw/cYKIQDrAs8Bt/gxA
lpc_rms=-43.06
pitch_keycenter=G#3
sample=Trumpet_Marcato_Whole_MF_G#3.opus
tune=+8
</region>

<region>
hikey=A4
hivel=127
lokey=G#4
lovel=0
lpc=1RFsQqQ2acOO9clDdVLJw6CqhUPg5A7D76eaQvYUTcKoHCJCFRKiwQlJPcDQGSFBgM74wCAWlkDK0bE/9f0+wKCbRcDfeZNAtMa/QNgap8H+W9VBK/mVwepl2UBK0U2/
lpc_rms=-34.46
pitch_keycenter=G#4
sample=Trumpet_Marcato_Whole_MF_G#4.opus
tune=-32
</region>

<region>
hikey=A5
hivel=127
lokey=G#5
lovel=0
lpc=fJSAQoGH+8IJVhlDuMb8wubdy0KeiYPCor1aQm4YHcInkhJCvqGowSusyEF5XpHB7wfMQTyPkcEvWrNBjVtUwVw+m0EjR0bBSJujQX13NMH9s+pAADAkQcPr7MD1/2BB
lpc_rms=-29.19
pitch_keycenter=G#5
sample=Trumpet_Marcato_Whole_MF_G#5.opus
tune=-44
</region>
</group>

<group>
group_label=Group_87-127
lpc_hicc1=127
lpc_locc1=87

<region>
hikey=B3
hivel=127
lokey=A#3
lovel=0
lpc=2OoKQoyMBcPhTm9DjdaIwwwlbUNrIyzD6R3VQsudXMJy9N5BpUSvwVxlyUH0yOHBGJfEQWOWTsFO04w/2dKNQCLAksD1sChA7NdZvwiEVL8MCldABZKTwEoUPkCksEG/
lpc_rms=-40.82
pitch_keycenter=A#3
sample=Trumpet_Marcato_Whole_FF_A#3.opus
tune=+13
</region>

<region>
hikey=B4
hivel=127
lokey=A#4
lovel=0
lpc=kSKLQS0vasJRKr5CLuTUwm0pzEJ6jrLCMAqJQqvOQsKfwhNCB+TrwRyZuUHTdJ/BwSChQZxDpcETtKtBhrqlwWaNcUF7ZxDBnSXjQKUojcBrdri/udOpQM6bhsD5ibw/
lpc_rms=-32.45
pitch_keycenter=A#4
sample=Trumpet_Marcato_Whole_FF_A#4.opus
tune=-10
</region>

<region>
hikey=B5
hivel=127
lokey=A#5
lovel=0
lpc=YY2kQZbPPsGa1KpBJhOkwJBRYUERAQA/j3oXQVOxdkC7FP5AloqKQN1z6UDYq55AgNjjQCC8qUAUKtRAXC2tQHyxykCuDb1AfqTXQBF2lkBY1O5A1B2ZQCt95UDr1tdA
lpc_rms=-27.66
pitch_keycenter=A#5
sample=Trumpet_Marcato_Whole_FF_A#5.opus
tune=-44
</region>

<region>
hikey=C#4
hivel=127
lokey=C4
lovel=0
lpc=N3lsQfPWO8LgKZFCryybwuedjEKT2WfCv4EzQgpNCcI11eFBwOPGwX3srUG27Y7BWEVtQfESS8FRqzRB+xcXwZZazEBeOTDAnjiSPh+9rj8uQBLAmewIQKPBhL8bbXo+
lpc_rms=-38.77
sample=Trumpet_Marcato_Whole_FF_C4.opus
tune=+11
</region>

<region>
hikey=C#5
hivel=127
lokey=C5
lovel=0
lpc=rf+EQU4sXMLwgbRCPV7NwmW6v0JYx5vCw2VbQt+MB8LXhK1BCZCKwVWpdUEYyjbBoAS7QHvsNb+eRdq/to0sQMuZVcDSsVtA2E8ewFGuuD/InPC/nYZRQGJQV8B5Qcg/
lpc_rms=-31.13
pitch_keycenter=C5
sample=Trumpet_Marcato_Whole_FF_C5.opus
tune=+2
</region>

<region>
hikey=F6
hivel=127
lokey=C6
lovel=0
lpc=dhHuQbgE48GdO8BB9qNQwbDOcUGmtM/AgVQnQYAnSsD03fJAoyLAvj+ioEDJBeQ/HIpLQE+CZkAQx6Y/JCexQO10bb9pJgRBydSNwNvvSUE38BvBy6yiQaGu8cFyml5B
lpc_rms=-26.54
pitch_keycenter=C6
sample=Trumpet_Marcato_Whole_FF_C6.opus
tune=-30
</region>

<region>
hikey=D#4
hivel=127
lokey=D4
lovel=0
lpc=TzP5QXbi58KnF0tDyjtow4UoUUMWDSXDrk3tQi1Zo8J17mRCKzUiwgKG4EHjFovB/WP1QLsNvbwLTJzAzaYAQd7K8sCul1NA0fAdQO3KwcDscalALLEhwMfEWT8OxRy9
lpc_rms=-40.49
pitch_keycenter=D4
sample=Trumpet_Marcato_Whole_FF_D4.opus
tune=-19
</region>

<region>
hikey=D#5
hivel=127
lokey=D5
lovel=0
lpc=FKsLQW8XvsFmKP9B90r0wdrjz0GmqqPByc1yQQRgIsHXusJAER5AwEZYDz9FazY/XDYVvwmkOT+jxQK/PGEmvx/ECkCgiTzARXhkQBAlaMDAZy1AaIUtvxAzFb+0+Ak/
lpc_rms=-31.49
pitch_keycenter=D5
sample=Trumpet_Marcato_Whole_FF_D5.opus
tune=-28
</region>

<region>
hikey=F4
hivel=127
lokey=E4
lovel=0
lpc=OHVJQuEQQcOzTaZDQKiuwzg+h0PVtznDlFfxQvhYi8IVQhhCb4S3wZ04j0EMrqfBs4KkQRDO2cA33BjB3b+AQY2wccFYclxBolhnwcUoUkEYmBTB0/PsQDifzMDG7TJA
lpc_rms=-36.16
pitch_keycenter=E4
sample=Trumpet_Marcato_Whole_FF_E4.opus
tune=-18
</region>

<region>
hikey=F5
hivel=127
lokey=E5
lovel=0
lpc=A+tjQRYIDMKEtyxCrc8ewv6NC0JyCNzBFrWLQQph9MAKIpZA1l89wIgx7T7/Cya/4p2dQCXo8cD8ZMBAMiAQwGsXIj8iKpk/9MXzv9r2IT9fUow/kdlAvqDhJcAjbylA
lpc_rms=-24.80
pitch_keycenter=E5
sample=Trumpet_Marcato_Whole_FF_E5.opus
tune=-10
</region>

<region>
hikey=G3
hivel=127
lokey=F#3
lovel=0
lpc=vmgIQuztA8N4QnNDkTCRwzEUhEOs5UnDAAgHQ3NEosI4qENCB7wAwoE8tUHOfJPBtH+UQdFFh8FWkjJBfaCfwBbQIkAGJw7AM0ixP07cBr+gpr0/UVATwKiAvj/Bo8K+
lpc_rms=-40.99
pitch_keycenter=F#3
sample=Trumpet_Marcato_Whole_FF_F#3.opus
tune=+18
</region>

<region>
hikey=G4
hivel=127
lokey=F#4
lovel=0
lpc=YK4pQiDAIsOzXJRD2LKuwy4xnUMu4HTDSIY1Q1PWBcO908JCSsKHwghnPUKqWxnCP4wXQh7SDsK1y9ZBRQ1fwer7jUDTtNq/p0WeQBHIEMF+jy1BBWQQwcpLoEDaPaC/
lpc_rms=-34.47
pitch_keycenter=F#4
sample=Trumpet_Marcato_Whole_FF_F#4.opus
tune=-11
</region>

<region>
hikey=G5
hivel=127
lokey=F#5
lovel=0
lpc=hMTxQBxai8FHs6tBwteZwTVigEGM8DvBBoYFQZn90MC1VbdARwRKwFdmEEAM//m/OecnP7Yv7D9sNUnAxKaSQJ/Xh8BqG2lAMzh8wCU/vUCH6OTAVPLwQPKGqcCkqh9A
lpc_rms=-32.55
pitch_keycenter=F#5
sample=Trumpet_Marcato_Whole_FF_F#5.opus
tune=-3
</region>

<region>
hikey=A3
hivel=127
lokey=G#3
lovel=0
lpc=f8YGQqjkAcP+sWxD9++Mw4HsgkMoB1HDfowSQ/8stsI26FhC4ykOwgkS1EEepKDBXqtnQUsFIcFrI69AigLePcpoicASzOJAf6AHwR2NxkAlnmS/YV8XwO2zzD81CVa9
lpc_rms=-39.50
pitch_keycenter=G#3
sample=Trumpet_Marcato_Whole_FF_G#3.opus
tune=+7
</region>

<region>
hikey=A4
hivel=127
lokey=G#4
lovel=0
lpc=3jARQt2wDcN9doBD0DGTw1EFfENp/THDQQrNQqwNPcJ2Vc5B+Ie7wfy9r0ED/67Bqo7CQWiquMG6nZpBsXaFwWtRa0EIWGfBUAOUQczRrMGke29BPA0LwHGaeMDHZfQ/
lpc_rms=-32.66
pitch_keycenter=G#4
sample=Trumpet_Marcato_Whole_FF_G#4.opus
tune=-29
</region>

<region>
hikey=A5
hivel=127
lokey=G#5
lovel=0
lpc=lM11QSmo3cEX4glCo37hwbdrtkGyOlnByOYiQbmIU8BofDE/6rOSQHfZMsBxH0VA6n3SP/lCAcBIPrhAcj50wNyAkEASQ3y+Ck/bvi4L2UBNLhvBY6hvQQX1QsGEiBBB
lpc_rms=-28.08
pitch_keycenter=G#5
sample=Trumpet_Marcato_Whole_FF_G#5.opus
tune=-26
</region>
</group>

<group>
group_label=RR1
seq_length=2
seq_position=1

<region>
hivel=127
key=A#3
lovel=87
offset=355
sample=Trumpet_staccato_FF_A#3_RR1.opus
tune=+21
</region>

<region>
hivel=127
key=A#4
lovel=87
offset=117
sample=Trumpet_staccato_FF_A#4_RR1.opus
tune=-4
</region>

<region>
hivel=127
key=A#5
lovel=87
sample=Trumpet_staccato_FF_A#5_RR1.opus
tune=-57
</region>

<region>
hivel=127
key=A3
lovel=87
offset=827
sample=Trumpet_staccato_FF_A3_RR1.opus
tune=+29
</region>

<region>
hivel=127
key=A4
lovel=87
offset=81
sample=Trumpet_staccato_FF_A4_RR1.opus
tune=-33
</region>

<region>
hivel=127
key=A5
lovel=87
offset=477
sample=Trumpet_staccato_FF_A5_RR1.opus
tune=-27
</region>

<region>
hivel=127
key=B3
lovel=87
offset=516
sample=Trumpet_staccato_FF_B3_RR1.opus
tune=+16
</region>

<region>
hivel=127
key=B4
lovel=87
offset=145
sample=Trumpet_staccato_FF_B4_RR1.opus
tune=-10
</region>

<region>
hivel=127
key=B5
lovel=87
offset=284
sample=Trumpet_staccato_FF_B5_RR1.opus
tune=-22
</region>

<region>
hivel=127
key=C#4
lovel=87
sample=Trumpet_staccato_FF_C#4_RR1.opus
tune=+10
</region>

<region>
hivel=127
key=C#5
lovel=87
offset=69
sample=Trumpet_staccato_FF_C#5_RR1.opus
tune=-3
</region>

<region>
hikey=C4
hivel=127
lokey=C4
lovel=87
offset=60
sample=Trumpet_staccato_FF_C4_RR1.opus
tune=+2
</region>

<region>
hivel=127
key=C5
lovel=87
offset=583
sample=Trumpet_staccato_FF_C5_RR1.opus
tune=-3
</region>

<region>
hikey=F6
hivel=127
lokey=C6
lovel=87
pitch_keycenter=C6
sample=Trumpet_staccato_FF_C6_RR1.opus
tune=-62
</region>

<region>
hivel=127
key=D#4
lovel=87
offset=630
sample=Trumpet_staccato_FF_D#4_RR1.opus
tune=+1
</region>

<region>
hivel=127
key=D#5
lovel=87
offset=159
sample=Trumpet_staccato_FF_D#5_RR1.opus
tune=-17
</region>

<region>
hivel=127
key=D4
lovel=87
offset=25
sample=Trumpet_staccato_FF_D4_RR1.opus
tune=-5
</region>

<region>
hivel=127
key=D5
lovel=87
offset=502
sample=Trumpet_staccato_FF_D5_RR1.opus
tune=-8
</region>

<region>
hivel=127
key=E4
lovel=87
sample=Trumpet_staccato_FF_E4_RR1.opus
tune=+3
</region>

<region>
hivel=127
key=E5
lovel=87
offset=124
sample=Trumpet_staccato_FF_E5_RR1.opus
tune=-6
</region>

<region>
hivel=127
key=F#3
lovel=87
offset=68
sample=Trumpet_staccato_FF_F#3_RR1.opus
tune=+39
</region>

<region>
hivel=127
key=F#4
lovel=87
offset=140
sample=Trumpet_staccato_FF_F#4_RR1.opus
tune=-4
</region>

<region>
hivel=127
key=F#5
lovel=87
offset=524
sample=Trumpet_staccato_FF_F#5_RR1.opus
tune=-10
</region>

<region>
hivel=127
key=F4
lovel=87
offset=85
sample=Trumpet_staccato_FF_F4_RR1.opus
tune=-5
</region>

<region>
hivel=127
key=F5
lovel=87
offset=24
sample=Trumpet_staccato_FF_F5_RR1.opus
tune=-21
</region>

<region>
hivel=127
key=G#3
lovel=87
offset=1904
sample=Trumpet_staccato_FF_G#3_RR1.opus
tune=+26
</region>

<region>
hivel=127
key=G#4
lovel=87
sample=Trumpet_staccato_FF_G#4_RR1.opus
tune=-15
</region>

<region>
hivel=127
key=G#5
lovel=87
sample=Trumpet_staccato_FF_G#5_RR1.opus
tune=-13
</region>

<region>
hivel=127
key=G3
lovel=87
sample=Trumpet_staccato_FF_G3_RR1.opus
tune=+35
</region>

<region>
hivel=127
key=G4
lovel=87
sample=Trumpet_staccato_FF_G4_RR1.opus
tune=-9
</region>

<region>
hivel=127
key=G5
lovel=87
sample=Trumpet_staccato_FF_G5_RR1.opus
tune=-9
</region>

<region>
hivel=86
key=A#3
lovel=43
offset=52
sample=Trumpet_staccato_MF_A#3_RR1.opus
tune=-2
</region>

<region>
hivel=86
key=A#4
lovel=43
sample=Trumpet_staccato_MF_A#4_RR1.opus
tune=-34
</region>

<region>
hivel=86
key=A#5
lovel=43
offset=52
sample=Trumpet_staccato_MF_A#5_RR1.opus
tune=-41
</region>

<region>
hivel=86
key=A3
lovel=43
sample=Trumpet_staccato_MF_A3_RR1.opus
tune=-3
</region>

<region>
hivel=86
key=A4
lovel=43
sample=Trumpet_staccato_MF_A4_RR1.opus
tune=-20
</region>

<region>
hivel=86
key=A5
lovel=43
sample=Trumpet_staccato_MF_A5_RR1.opus
tune=-14
</region>

<region>
hivel=86
key=B3
lovel=43
sample=Trumpet_staccato_MF_B3_RR1.opus
tune=+5
</region>

<region>
hivel=86
key=B4
lovel=43
sample=Trumpet_staccato_MF_B4_RR1.opus
tune=-12
</region>

<region>
hivel=86
key=B5
lovel=43
offset=32
sample=Trumpet_staccato_MF_B5_RR1.opus
tune=-36
</region>

<region>
hivel=86
key=C#4
lovel=43
offset=1172
sample=Trumpet_staccato_MF_C#4_RR1.opus
tune=+10
</region>

<region>
hivel=86
key=C#5
lovel=43
offset=144
sample=Trumpet_staccato_MF_C#5_RR1.opus
tune=+10
</region>

<region>
hikey=C4
hivel=86
lokey=C4
lovel=43
offset=1206
sample=Trumpet_staccato_MF_C4_RR1.opus
tune=+15
</region>

<region>
hivel=86
key=C5
lovel=43
offset=169
sample=Trumpet_staccato_MF_C5_RR1.opus
tune=+2
</region>

<region>
hikey=F6
hivel=86
lokey=C6
lovel=43
offset=38
pitch_keycenter=C6
sample=Trumpet_staccato_MF_C6_RR1.opus
tune=-19
</region>

<region>
hivel=86
key=D#4
lovel=43
offset=119
sample=Trumpet_staccato_MF_D#4_RR1.opus
tune=-10
</region>

<region>
hivel=86
key=D#5
lovel=43
offset=315
sample=Trumpet_staccato_MF_D#5_RR1.opus
tune=-8
</region>

<region>
hivel=86
key=D4
lovel=43
offset=181
sample=Trumpet_staccato_MF_D4_RR1.opus
tune=-11
</region>

<region>
hivel=86
key=D5
lovel=43
sample=Trumpet_staccato_MF_D5_RR1.opus
tune=-8
</region>

<region>
hivel=86
key=E4
lovel=43
offset=134
sample=Trumpet_staccato_MF_E4_RR1.opus
tune=-8
</region>

<region>
hivel=86
key=E5
lovel=43
offset=131
sample=Trumpet_staccato_MF_E5_RR1.opus
tune=-10
</region>

<region>
hivel=86
key=F#3
lovel=43
offset=1120
sample=Trumpet_staccato_MF_F#3_RR1.opus
tune=+19
</region>

<region>
hivel=86
key=F#4
lovel=43
offset=599
sample=Trumpet_staccato_MF_F#4_RR1.opus
tune=-14
</region>

<region>
hivel=86
key=F#5
lovel=43
offset=238
sample=Trumpet_staccato_MF_F#5_RR1.opus
tune=-18
</region>

<region>
hivel=86
key=F4
lovel=43
sample=Trumpet_staccato_MF_F4_RR1.opus
tune=-31
</region>

<region>
hivel=86
key=F5
lovel=43
offset=215
sample=Trumpet_staccato_MF_F5_RR1.opus
tune=-27
</region>

<region>
hivel=86
key=G#3
lovel=43
sample=Trumpet_staccato_MF_G#3_RR1.opus
tune=-14
</region>

<region>
hivel=86
key=G#4
lovel=43
sample=Trumpet_staccato_MF_G#4_RR1.opus
tune=-30
</region>

<region>
hivel=86
key=G#5
lovel=43
sample=Trumpet_staccato_MF_G#5_RR1.opus
tune=-37
</region>

<region>
hivel=86
key=G3
lovel=43
offset=25
sample=Trumpet_staccato_MF_G3_RR1.opus
tune=+10
</region>

<region>
hivel=86
key=G4
lovel=43
sample=Trumpet_staccato_MF_G4_RR1.opus
tune=-30
</region>

<region>
hivel=86
key=G5
lovel=43
offset=551
sample=Trumpet_staccato_MF_G5_RR1.opus
tune=-14
</region>

<region>
hivel=42
key=A#3
lovel=0
sample=Trumpet_staccato_PP_A#3_RR1.opus
tune=+6
</region>

<region>
hivel=42
key=A#4
lovel=0
offset=159
sample=Trumpet_staccato_PP_A#4_RR1.opus
tune=-36
</region>

<region>
hivel=42
key=A#5
lovel=0
sample=Trumpet_staccato_PP_A#5_RR1.opus
tune=-51
</region>

<region>
hivel=42
key=A3
lovel=0
offset=1914
sample=Trumpet_staccato_PP_A3_RR1.opus
tune=+2
</region>

<region>
hivel=42
key=A4
lovel=0
offset=295
sample=Trumpet_staccato_PP_A4_RR1.opus
tune=-25
</region>

<region>
hivel=42
key=A5
lovel=0
sample=Trumpet_staccato_PP_A5_RR1.opus
tune=-30
</region>

<region>
hivel=42
key=B3
lovel=0
offset=261
sample=Trumpet_staccato_PP_B3_RR1.opus
tune=-10
</region>

<region>
hivel=42
key=B4
lovel=0
offset=579
sample=Trumpet_staccato_PP_B4_RR1.opus
tune=-22
</region>

<region>
hivel=42
key=B5
lovel=0
offset=324
sample=Trumpet_staccato_PP_B5_RR1.opus
tune=-37
</region>

<region>
hivel=42
key=C#4
lovel=0
offset=1713
sample=Trumpet_staccato_PP_C#4_RR1.opus
tune=+3
</region>

<region>
hivel=42
key=C#5
lovel=0
offset=4956
sample=Trumpet_staccato_PP_C#5_RR1.opus
tune=-13
</region>

<region>
hikey=C4
hivel=42
lokey=C4
lovel=0
offset=470
sample=Trumpet_staccato_PP_C4_RR1.opus
tune=+21
</region>

<region>
hivel=42
key=C5
lovel=0
offset=158
sample=Trumpet_staccato_PP_C5_RR1.opus
tune=-7
</region>

<region>
hikey=F6
hivel=42
lokey=C6
lovel=0
pitch_keycenter=C6
sample=Trumpet_staccato_PP_C6_RR1.opus
tune=-32
</region>

<region>
hivel=42
key=D#4
lovel=0
offset=2456
sample=Trumpet_staccato_PP_D#4_RR1.opus
tune=-12
</region>

<region>
hivel=42
key=D#5
lovel=0
offset=529
sample=Trumpet_staccato_PP_D#5_RR1.opus
tune=-19
</region>

<region>
hivel=42
key=D4
lovel=0
offset=2425
sample=Trumpet_staccato_PP_D4_RR1.opus
tune=-24
</region>

<region>
hivel=42
key=D5
lovel=0
offset=2756
sample=Trumpet_staccato_PP_D5_RR1.opus
tune=-13
</region>

<region>
hivel=42
key=E4
lovel=0
offset=1356
sample=Trumpet_staccato_PP_E4_RR1.opus
tune=-11
</region>

<region>
hivel=42
key=E5
lovel=0
offset=207
sample=Trumpet_staccato_PP_E5_RR1.opus
tune=-23
</region>

<region>
hivel=42
key=F#3
lovel=0
offset=462
sample=Trumpet_staccato_PP_F#3_RR1.opus
tune=+27
</region>

<region>
hivel=42
key=F#4
lovel=0
offset=481
sample=Trumpet_staccato_PP_F#4_RR1.opus
tune=-16
</region>

<region>
hivel=42
key=F#5
lovel=0
offset=510
sample=Trumpet_staccato_PP_F#5_RR1.opus
tune=-29
</region>

<region>
hivel=42
key=F4
lovel=0
offset=99
sample=Trumpet_staccato_PP_F4_RR1.opus
tune=-30
</region>

<region>
hivel=42
key=F5
lovel=0
sample=Trumpet_staccato_PP_F5_RR1.opus
tune=-52
</region>

<region>
hivel=42
key=G#3
lovel=0
offset=1728
sample=Trumpet_staccato_PP_G#3_RR1.opus
tune=+14
</region>

<region>
hivel=42
key=G#4
lovel=0
offset=103
sample=Trumpet_staccato_PP_G#4_RR1.opus
tune=-25
</region>

<region>
hivel=42
key=G#5
lovel=0
sample=Trumpet_staccato_PP_G#5_RR1.opus
tune=-19
</region>

<region>
hivel=42
key=G3
lovel=0
sample=Trumpet_staccato_PP_G3_RR1.opus
tune=+3
</region>

<region>
hivel=42
key=G4
lovel=0
sample=Trumpet_staccato_PP_G4_RR1.opus
tune=-39
</region>

<region>
hivel=42
key=G5
lovel=0
sample=Trumpet_staccato_PP_G5_RR1.opus
tune=-22
</region>
</group>

<group>
group_label=RR2
seq_length=2
seq_position=2

<region>
hivel=127
key=A#3
lovel=87
offset=531
sample=Trumpet_staccato_FF_A#3_RR2.opus
tune=+33
</region>

<region>
hivel=127
key=A#4
lovel=87
offset=381
sample=Trumpet_staccato_FF_A#4_RR2.opus
tune=-14
</region>

<region>
hivel=127
key=A#5
lovel=87
offset=36
sample=Trumpet_staccato_FF_A#5_RR2.opus
tune=-55
</region>

<region>
hivel=127
key=A3
lovel=87
sample=Trumpet_staccato_FF_A3_RR2.opus
tune=+27
</region>

<region>
hivel=127
key=A4
lovel=87
offset=131
sample=Trumpet_staccato_FF_A4_RR2.opus
tune=-33
</region>

<region>
hivel=127
key=A5
lovel=87
sample=Trumpet_staccato_FF_A5_RR2.opus
tune=-27
</region>

<region>
hivel=127
key=B3
lovel=87
offset=516
sample=Trumpet_staccato_FF_B3_RR2.opus
tune=+17
</region>

<region>
hivel=127
key=B4
lovel=87
offset=237
sample=Trumpet_staccato_FF_B4_RR2.opus
tune=-11
</region>

<region>
hivel=127
key=B5
lovel=87
offset=57
sample=Trumpet_staccato_FF_B5_RR2.opus
tune=-25
</region>

<region>
hivel=127
key=C#4
lovel=87
sample=Trumpet_staccato_FF_C#4_RR2.opus
tune=+15
</region>

<region>
hivel=127
key=C#5
lovel=87
offset=160
sample=Trumpet_staccato_FF_C#5_RR2.opus
tune=-8
</region>

<region>
hikey=C4
hivel=127
lokey=C4
lovel=87
offset=3272
sample=Trumpet_staccato_FF_C4_RR2.opus
tune=-3
</region>

<region>
hivel=127
key=C5
lovel=87
offset=882
sample=Trumpet_staccato_FF_C5_RR2.opus
tune=-2
</region>

<region>
hikey=F6
hivel=127
lokey=C6
lovel=87
pitch_keycenter=C6
sample=Trumpet_staccato_FF_C6_RR2.opus
tune=-27
</region>

<region>
hivel=127
key=D#4
lovel=87
offset=137
sample=Trumpet_staccato_FF_D#4_RR2.opus
tune=+5
</region>

<region>
hivel=127
key=D#5
lovel=87
offset=254
sample=Trumpet_staccato_FF_D#5_RR2.opus
tune=-18
</region>

<region>
hivel=127
key=D4
lovel=87
offset=24
sample=Trumpet_staccato_FF_D4_RR2.opus
tune=-2
</region>

<region>
hivel=127
key=D5
lovel=87
offset=93
sample=Trumpet_staccato_FF_D5_RR2.opus
tune=-8
</region>

<region>
hivel=127
key=E4
lovel=87
sample=Trumpet_staccato_FF_E4_RR2.opus
tune=+12
</region>

<region>
hivel=127
key=E5
lovel=87
offset=61
sample=Trumpet_staccato_FF_E5_RR2.opus
tune=-11
</region>

<region>
hivel=127
key=F#3
lovel=87
offset=75
sample=Trumpet_staccato_FF_F#3_RR2.opus
tune=+32
</region>

<region>
hivel=127
key=F#4
lovel=87
offset=194
sample=Trumpet_staccato_FF_F#4_RR2.opus
tune=-9
</region>

<region>
hivel=127
key=F#5
lovel=87
offset=114
sample=Trumpet_staccato_FF_F#5_RR2.opus
tune=-16
</region>

<region>
hivel=127
key=F4
lovel=87
offset=81
sample=Trumpet_staccato_FF_F4_RR2.opus
tune=-5
</region>

<region>
hivel=127
key=F5
lovel=87
sample=Trumpet_staccato_FF_F5_RR2.opus
tune=-28
</region>

<region>
hivel=127
key=G#3
lovel=87
offset=848
sample=Trumpet_staccato_FF_G#3_RR2.opus
tune=+27
</region>

<region>
hivel=127
key=G#4
lovel=87
sample=Trumpet_staccato_FF_G#4_RR2.opus
tune=-15
</region>

<region>
hivel=127
key=G#5
lovel=87
sample=Trumpet_staccato_FF_G#5_RR2.opus
tune=-19
</region>

<region>
hivel=127
key=G3
lovel=87
sample=Trumpet_staccato_FF_G3_RR2.opus
tune=+27
</region>

<region>
hivel=127
key=G4
lovel=87
offset=196
sample=Trumpet_staccato_FF_G4_RR2.opus
tune=-8
</region>

<region>
hivel=127
key=G5
lovel=87
offset=83
sample=Trumpet_staccato_FF_G5_RR2.opus
tune=-14
</region>

<region>
hivel=86
key=A#3
lovel=43
offset=60
sample=Trumpet_staccato_MF_A#3_RR2.opus
tune=+1
</region>

<region>
hivel=86
key=A#4
lovel=43
sample=Trumpet_staccato_MF_A#4_RR2.opus
tune=-24
</region>

<region>
hivel=86
key=A#5
lovel=43
sample=Trumpet_staccato_MF_A#5_RR2.opus
tune=-45
</region>

<region>
hivel=86
key=A3
lovel=43
sample=Trumpet_staccato_MF_A3_RR2.opus
tune=-8
</region>

<region>
hivel=86
key=A4
lovel=43
sample=Trumpet_staccato_MF_A4_RR2.opus
tune=-26
</region>

<region>
hivel=86
key=A5
lovel=43
sample=Trumpet_staccato_MF_A5_RR2.opus
tune=-20
</region>

<region>
hivel=86
key=B3
lovel=43
offset=39
sample=Trumpet_staccato_MF_B3_RR2.opus
tune=+3
</region>

<region>
hivel=86
key=B4
lovel=43
sample=Trumpet_staccato_MF_B4_RR2.opus
tune=-10
</region>

<region>
hivel=86
key=B5
lovel=43
sample=Trumpet_staccato_MF_B5_RR2.opus
tune=-36
</region>

<region>
hivel=86
key=C#4
lovel=43
sample=Trumpet_staccato_MF_C#4_RR2.opus
tune=+4
</region>

<region>
hivel=86
key=C#5
lovel=43
offset=156
sample=Trumpet_staccato_MF_C#5_RR2.opus
tune=+5
</region>

<region>
hikey=C4
hivel=86
lokey=C4
lovel=43
offset=844
sample=Trumpet_staccato_MF_C4_RR2.opus
tune=+11
</region>

<region>
hivel=86
key=C5
lovel=43
offset=421
sample=Trumpet_staccato_MF_C5_RR2.opus
tune=+8
</region>

<region>
hikey=F6
hivel=86
lokey=C6
lovel=43
pitch_keycenter=C6
sample=Trumpet_staccato_MF_C6_RR2.opus
tune=-24
</region>

<region>
hivel=86
key=D#4
lovel=43
sample=Trumpet_staccato_MF_D#4_RR2.opus
tune=-10
</region>

<region>
hivel=86
key=D#5
lovel=43
offset=245
sample=Trumpet_staccato_MF_D#5_RR2.opus
tune=-14
</region>

<region>
hivel=86
key=D4
lovel=43
offset=184
sample=Trumpet_staccato_MF_D4_RR2.opus
tune=-12
</region>

<region>
hivel=86
key=D5
lovel=43
offset=84
sample=Trumpet_staccato_MF_D5_RR2.opus
tune=-16
</region>

<region>
hivel=86
key=E4
lovel=43
sample=Trumpet_staccato_MF_E4_RR2.opus
tune=-13
</region>

<region>
hivel=86
key=E5
lovel=43
offset=172
sample=Trumpet_staccato_MF_E5_RR2.opus
tune=-20
</region>

<region>
hivel=86
key=F#3
lovel=43
offset=4408
sample=Trumpet_staccato_MF_F#3_RR2.opus
tune=+13
</region>

<region>
hivel=86
key=F#4
lovel=43
offset=281
sample=Trumpet_staccato_MF_F#4_RR2.opus
tune=-14
</region>

<region>
hivel=86
key=F#5
lovel=43
offset=2591
sample=Trumpet_staccato_MF_F#5_RR2.opus
tune=-20
</region>

<region>
hivel=86
key=F4
lovel=43
offset=210
sample=Trumpet_staccato_MF_F4_RR2.opus
tune=-28
</region>

<region>
hivel=86
key=F5
lovel=43
offset=66
sample=Trumpet_staccato_MF_F5_RR2.opus
tune=-36
</region>

<region>
hivel=86
key=G#3
lovel=43
offset=2109
sample=Trumpet_staccato_MF_G#3_RR2.opus
tune=-11
</region>

<region>
hivel=86
key=G#4
lovel=43
sample=Trumpet_staccato_MF_G#4_RR2.opus
tune=-29
</region>

<region>
hivel=86
key=G#5
lovel=43
offset=511
sample=Trumpet_staccato_MF_G#5_RR2.opus
tune=-38
</region>

<region>
hivel=86
key=G3
lovel=43
offset=2190
sample=Trumpet_staccato_MF_G3_RR2.opus
tune=-2
</region>

<region>
hivel=86
key=G4
lovel=43
sample=Trumpet_staccato_MF_G4_RR2.opus
tune=-28
</region>

<region>
hivel=86
key=G5
lovel=43
offset=317
sample=Trumpet_staccato_MF_G5_RR2.opus
tune=-28
</region>

<region>
hivel=42
key=A#3
lovel=0
offset=1370
sample=Trumpet_staccato_PP_A#3_RR2.opus
tune=+2
</region>

<region>
hivel=42
key=A#4
lovel=0
offset=3729
sample=Trumpet_staccato_PP_A#4_RR2.opus
tune=-42
</region>

<region>
hivel=42
key=A#5
lovel=0
sample=Trumpet_staccato_PP_A#5_RR2.opus
tune=-43
</region>

<region>
hivel=42
key=A3
lovel=0
offset=2214
sample=Trumpet_staccato_PP_A3_RR2.opus
tune=+12
</region>

<region>
hivel=42
key=A4
lovel=0
offset=4825
sample=Trumpet_staccato_PP_A4_RR2.opus
tune=-31
</region>

<region>
hivel=42
key=A5
lovel=0
offset=505
sample=Trumpet_staccato_PP_A5_RR2.opus
tune=-33
</region>

<region>
hivel=42
key=B3
lovel=0
offset=3850
sample=Trumpet_staccato_PP_B3_RR2.opus
tune=-12
</region>

<region>
hivel=42
key=B4
lovel=0
offset=3544
sample=Trumpet_staccato_PP_B4_RR2.opus
tune=-25
</region>

<region>
hivel=42
key=B5
lovel=0
offset=179
sample=Trumpet_staccato_PP_B5_RR2.opus
tune=-47
</region>

<region>
hivel=42
key=C#4
lovel=0
offset=3064
sample=Trumpet_staccato_PP_C#4_RR2.opus
tune=+3
</region>

<region>
hivel=42
key=C#5
lovel=0
offset=492
sample=Trumpet_staccato_PP_C#5_RR2.opus
tune=-13
</region>

<region>
hikey=C4
hivel=42
lokey=C4
lovel=0
offset=110
sample=Trumpet_staccato_PP_C4_RR2.opus
tune=+29
</region>

<region>
hivel=42
key=C5
lovel=0
offset=693
sample=Trumpet_staccato_PP_C5_RR2.opus
tune=-9
</region>

<region>
hikey=F6
hivel=42
lokey=C6
lovel=0
offset=32
pitch_keycenter=C6
sample=Trumpet_staccato_PP_C6_RR2.opus
tune=-35
</region>

<region>
hivel=42
key=D#4
lovel=0
offset=2226
sample=Trumpet_staccato_PP_D#4_RR2.opus
tune=-12
</region>

<region>
hivel=42
key=D#5
lovel=0
offset=3542
sample=Trumpet_staccato_PP_D#5_RR2.opus
tune=-29
</region>

<region>
hivel=42
key=D4
lovel=0
offset=2626
sample=Trumpet_staccato_PP_D4_RR2.opus
tune=-25
</region>

<region>
hivel=42
key=D5
lovel=0
offset=4724
sample=Trumpet_staccato_PP_D5_RR2.opus
tune=-16
</region>

<region>
hivel=42
key=E4
lovel=0
offset=3491
sample=Trumpet_staccato_PP_E4_RR2.opus
tune=-10
</region>

<region>
hivel=42
key=E5
lovel=0
offset=69
sample=Trumpet_staccato_PP_E5_RR2.opus
tune=-28
</region>

<region>
hivel=42
key=F#3
lovel=0
offset=4033
sample=Trumpet_staccato_PP_F#3_RR2.opus
tune=+13
</region>

<region>
hivel=42
key=F#4
lovel=0
offset=1255
sample=Trumpet_staccato_PP_F#4_RR2.opus
tune=-23
</region>

<region>
hivel=42
key=F#5
lovel=0
offset=98
sample=Trumpet_staccato_PP_F#5_RR2.opus
tune=-34
</region>

<region>
hivel=42
key=F4
lovel=0
sample=Trumpet_staccato_PP_F4_RR2.opus
tune=-29
</region>

<region>
hivel=42
key=F5
lovel=0
offset=257
sample=Trumpet_staccato_PP_F5_RR2.opus
tune=-55
</region>

<region>
hivel=42
key=G#3
lovel=0
offset=3345
sample=Trumpet_staccato_PP_G#3_RR2.opus
</region>

<region>
hivel=42
key=G#4
lovel=0
offset=117
sample=Trumpet_staccato_PP_G#4_RR2.opus
tune=-26
</region>

<region>
hivel=42
key=G#5
lovel=0
offset=780
sample=Trumpet_staccato_PP_G#5_RR2.opus
tune=-19
</region>

<region>
hivel=42
key=G3
lovel=0
offset=769
sample=Trumpet_staccato_PP_G3_RR2.opus
tune=+2
</region>

<region>
hivel=42
key=G4
lovel=0
offset=2140
sample=Trumpet_staccato_PP_G4_RR2.opus
tune=-41
</region>

<region>
hivel=42
key=G5
lovel=0
offset=2791
sample=Trumpet_staccato_PP_G5_RR2.opus
tune=-26
</region>
</group>

<group>
ampeg_attack=1.5
group_label=PP
lpc_hicc1=42
lpc_locc1=0

<region>
hivel=127
key=A#3
loop_end=169203
loop_mode=loop_continuous
loop_start=54005
loop_xfade=15955
lovel=0
lpc=3vc9QnurA8MEWP1CeNY/wrEwX0FjFWLBeGsCQXE1P8CMuxM/AlslP7pxoz5meJE83a4pv3GJsb8jnkU/qch/P1GjOr81/1I/Ewvlv3kl+T8Cjuk+wdWvPyKNsMClrUJA
lpc_rms=-56.21
offset=3255
sample=Trumpet_sustain_PP_A#3.opus
tune=+1
</region>

<region>
hivel=127
key=A#4
loop_end=150269
loop_mode=loop_continuous
loop_start=47962
loop_xfade=14169
lovel=0
lpc=b0ueQqMQhMP/RK9D9zl2wy0M/0Jiv4nCrK3lQXAAUcG2l/FAZxWIQC2mkj08OTjBlf8SQZZiPsBNy7+/A6D5QHPNj8ChOCHBAKRWQe9G8r6fUkLBpwi5QZUPwsGlQBtB
lpc_rms=-47.90
offset=438
sample=Trumpet_sustain_PP_A#4.opus
tune=-38
</region>

<region>
hivel=127
key=A#5
loop_end=147019
loop_mode=loop_continuous
loop_start=46925
loop_xfade=13863
lovel=0
lpc=LHugQvNxQ8PZOHND/RBUwwzmI0PjwPPCx5GvQv+fb8J7oR5CPgUFwsyiCEJ9uMnB0kZPQUiex8AA+ABB3oxZwYqZMUHtOuE+8C5mwNsUbj8uJm2/Dc0LQOgcmj9EMh7B
lpc_rms=-35.92
sample=Trumpet_sustain_PP_A#5.opus
tune=-43
</region>

<region>
hivel=127
key=A3
loop_end=168285
loop_mode=loop_continuous
loop_start=53712
loop_xfade=15868
lovel=0
lpc=d7ZKQhBgBcNINudCKp4PwhEGikHPcK7BQtbvQJ2Jo74HHghAZgEbwPgioj+leJm+40UuP934KMDdhwFAEUeSvwuVkT+lcDQ/uG6Pvxt3bj+fwde9tU89vbDqKMAo+gxA
lpc_rms=-56.47
offset=691
sample=Trumpet_sustain_PP_A3.opus
tune=+5
</region>

<region>
hivel=127
key=A4
loop_end=144854
loop_mode=loop_continuous
loop_start=46234
loop_xfade=13659
lovel=0
lpc=3wX7QpLq2MMYCxNElvPAw2j5DEMn6ojCHX9oQrhBH8JSh9pBZ2oOwTZte8FzuopBLOTJQPeBicHtfFxAeRCNQLWODUEkeIbBYDrDQH7nOUDIsynB0PHgQTOK+MHmgERB
lpc_rms=-43.99
offset=497
sample=Trumpet_sustain_PP_A4.opus
tune=-35
</region>

<region>
hivel=127
key=A5
loop_end=134883
loop_mode=loop_continuous
loop_start=43051
loop_xfade=12719
lovel=0
lpc=+OqQQp2+OMNNwHZDEgBhwysiLUMsJfvCRPCtQk3AOsL5QnJBn7zHQHuUcMHT56lBe0awwQpRrUEkwXrBOMYOQZmBgUDi1oXBg5jmQcczDMK7ZzxCyd1zwkyuekKMov7B
lpc_rms=-40.53
sample=Trumpet_sustain_PP_A5.opus
tune=-26
</region>

<region>
hivel=127
key=B3
loop_end=169203
loop_mode=loop_continuous
loop_start=54005
loop_xfade=15955
lovel=0
lpc=9S5NQhXN98L9Oq1CRJ93wWPdikEmkobBipLKP4HGh7+gjO4+1qE/v6MQHj7ebxQ/zod3P/NOnb+fjFm/m+zIP48/Fj0/hg29f8RUvtBq7j7HAiU+O9a5PpBNTsD9Vg9A
lpc_rms=-59.37
offset=7269
sample=Trumpet_sustain_PP_B3.opus
tune=-15
</region>

<region>
hivel=127
key=B4
loop_end=165949
loop_mode=loop_continuous
loop_start=52967
loop_xfade=15648
lovel=0
lpc=QhOhQs9DjcO3uchDMrKYw0hTIENfc5TCA+l1QbIwy0DnRxNB34WMwQIS+D9mXTFB/950wPevVD/p5dXAVEhXP/iXA0H3JAHBx5ccQDtK8UAhNqjBanEHQkWL88GCBDJB
lpc_rms=-47.11
offset=5245
sample=Trumpet_sustain_PP_B4.opus
tune=-19
</region>

<region>
hivel=127
key=B5
loop_end=149273
loop_mode=loop_continuous
loop_start=47644
loop_xfade=14075
lovel=0
lpc=y3ZmQumDysIoOfBCSeLWwkilu0L10JzC28eJQg1kV8JCUitCNrHcwQJGnUHVnBjBkWXcQINxgr8aEMW9tOa1QEtn38DqX1lB989pwTCDjEFz+0rB/uNKQfXd9cBaEBvB
lpc_rms=-29.80
sample=Trumpet_sustain_PP_B5.opus
tune=-31
</region>

<region>
hivel=127
key=C#4
loop_end=169203
loop_mode=loop_continuous
loop_start=54005
loop_xfade=15955
lovel=0
lpc=qpdCQmNGBcO3PPZCXS8vwt+Ak0HXv5PBul8FQbThZ8A4SzS/nwEovL5IMD97rRVAGgq3vasByb9VZN4+MvCTvQ+6Zz9Rsw7A2Ev4P2O50z3FZ5O/cfpyP7w+bb+2wxE/
lpc_rms=-57.60
offset=4525
sample=Trumpet_sustain_PP_C#4.opus
tune=+8
</region>

<region>
hivel=127
key=C#5
loop_end=149715
loop_mode=loop_continuous
loop_start=47785
loop_xfade=14117
lovel=0
lpc=1mjgQiw8wcP11QlEu47Vw/MuXUPu+NfC3XyAQvLRCcIN9FLA8uCtQZ6v1MDIhxPBcnnwQDgjE0B1AnRAvt2dwRft00F2acTBWng5Qb3I1UBMs/fBbCWOQoVXlsKOMetB
lpc_rms=-43.58
offset=62
sample=Trumpet_sustain_PP_C#5.opus
tune=-6
</region>

<region>
hikey=C4
hivel=127
lokey=C4
loop_end=169203
loop_mode=loop_continuous
loop_start=54005
loop_xfade=15955
lovel=0
lpc=8bmNQtkhVcOil3FDlBACwyNvKUJJp87B/8nUQeKUOcHQc4M+CiHjwLqGGUGy2CfA3MtSvpmMDcB9HvW/RSrFQAsLM8CAo7Y/eUwAwMTPD0Db0kE+D5hQPmqCw8C+z45A
lpc_rms=-51.52
offset=6107
sample=Trumpet_sustain_PP_C4.opus
tune=+14
</region>

<region>
hivel=127
key=C5
loop_end=138643
loop_mode=loop_continuous
loop_start=44251
loop_xfade=13073
lovel=0
lpc=fRMFQ4BF7sPl8jBEYMAOxN98n0MFCkHD65r9QuPDbMLR5jRBhfXBQQc3JcIx/jFBpRgZQp8SScKewMBBsK2DQZ/fE8IIzLxBtoAZwXID2EBgmGfBPW8RQnREF8KFYWNB
lpc_rms=-40.93
offset=348
sample=Trumpet_sustain_PP_C5.opus
tune=-5
</region>

<region>
hikey=F6
hivel=127
lokey=C6
loop_end=139105
loop_mode=loop_continuous
loop_start=44399
loop_xfade=13117
lovel=0
lpc=Yr1rQhF42MIALO5CQaLOwq4Zr0Jal2nCk9MyQui668EcvANCY8vcwfCl+0HmY6vB2kWnQboYKMFTGk1BkXShwFTk+kAo+Jg/FGnyP/AZAEA3K9FAl+DnP3l838Hs3sBB
lpc_rms=-29.47
offset=270
pitch_keycenter=C6
sample=Trumpet_sustain_PP_C6.opus
tune=-29
</region>

<region>
hivel=127
key=D#4
loop_end=168304
loop_mode=loop_continuous
loop_start=53718
loop_xfade=15870
lovel=0
lpc=x6OlQg/6dcMje4VDpXwHw+GAZkKCSRzC2cuMQd8DAsHpaQRBu/UmwQd+i0ACvZJAdK+YQKVdW8EO3VJAsm3lQMswG8BqOebA2WWFQC1qqEAwPXHAu7pkQMMzHcFERcZA
lpc_rms=-49.89
offset=2295
sample=Trumpet_sustain_PP_D#4.opus
tune=-18
</region>

<region>
hivel=127
key=D#5
loop_end=149759
loop_mode=loop_continuous
loop_start=47799
loop_xfade=14121
lovel=0
lpc=U+kUQ3gh6MO7JR1EuaT/w/9mrEPbr3rD5totQzjFpcJfVwlCJzQRwvrDdkGYWP9BkEimwWN3EsIph0RCMmTVvvYNHMHdiwzC+7kPQoJev0Fo8mzC2dGJQrV1g8ISKf9B
lpc_rms=-40.46
sample=Trumpet_sustain_PP_D#5.opus
tune=-17
</region>

<region>
hivel=127
key=D4
loop_end=169203
loop_mode=loop_continuous
loop_start=54005
loop_xfade=15955
lovel=0
lpc=Z3lxQm00JcNGNxVDaTdAwpacrEG/vdLBk7QUQX9KL8C5iINAbIGGwPBOLED4WfY8zyJJv6ppdT5fSky/GKvrP0sWVT3bo4G/L+tHv/Jb1z8d6Kc92oxiwDcBiUA1Tce/
lpc_rms=-55.46
offset=4284
sample=Trumpet_sustain_PP_D4.opus
tune=-16
</region>

<region>
hivel=127
key=D5
loop_end=166010
loop_mode=loop_continuous
loop_start=52986
loop_xfade=15654
lovel=0
lpc=FGcWQ/rxAcRGgzpEZOcSxLu3oUOlqiXD70mVQnwbw8GtFlZAw3zKwDEr5EFlSbHBmmU7wZZ01EG9VRvA1jKiwXOo9kA4goQ/Cj9eQc5eFcHF35PBb9RAQtS/UcJRkblB
lpc_rms=-40.83
offset=290
sample=Trumpet_sustain_PP_D5.opus
tune=-20
</region>

<region>
hivel=127
key=E4
loop_end=169203
loop_mode=loop_continuous
loop_start=54005
loop_xfade=15955
lovel=0
lpc=2GDTQhqYocNT9a1D/6cYw+Y0XEIstGnC6FPGQSg4JkBTpLw/oCDGwK5lkUDNnhLAekcMQB3mX8B4ThNABUVwQHl5vr+5D5zAIeHRv6sgnUAG5+U9Jlj9QC38d8FnDOFA
lpc_rms=-48.25
offset=4393
sample=Trumpet_sustain_PP_E4.opus
tune=-7
</region>

<region>
hivel=127
key=E5
loop_end=140290
loop_mode=loop_continuous
loop_start=44777
loop_xfade=13228
lovel=0
lpc=kZ4dQ1Fd/8O9BjtE6kUnxGgM30OmfH7DkHoVQ2tqpsK0LC5A0kgsQvCij8GFElDAAzvvP647b0A/4SnBww7IQYuBC8LvUdhBbXskwVwr30G+YHDCo0OZQoEXg8JLfvNB
lpc_rms=-38.63
sample=Trumpet_sustain_PP_E5.opus
tune=-16
</region>

<region>
hivel=127
key=F#3
loop_end=169203
loop_mode=loop_continuous
loop_start=54005
loop_xfade=15955
lovel=0
lpc=S6SEQv7WIMMwOvZCTxIgwmy/A0K9ftfBAIzUQDwktb/kSdU/Np1IwCahrj9ySEU/QYnfP16rIMBYKAnApne/PzGaoD92d4M9E9uXPu4OeD+O6SHA9d88QApOjMBn4SNA
lpc_rms=-56.06
offset=2223
sample=Trumpet_sustain_PP_F#3.opus
tune=+10
</region>

<region>
hivel=127
key=F#4
loop_end=167966
loop_mode=loop_continuous
loop_start=53610
loop_xfade=15838
lovel=0
lpc=svejQjD3hMOrfZ5D2Lsbw9TWAkJSKQnCOdcAQl9skL/pe5XACR4UwbAWCUHknSG/+jwfQDgIjMD47+o/tw8JPmEi2r8LvyBAaeqYv/LQa783b/c/mz+Lv1Lvir7Jyf0+
lpc_rms=-49.83
offset=606
sample=Trumpet_sustain_PP_F#4.opus
tune=-21
</region>

<region>
hivel=127
key=F#5
loop_end=134592
loop_mode=loop_continuous
loop_start=42958
loop_xfade=12691
lovel=0
lpc=W8sDQ1PrzMOQ+wtE8IPcw7F4hkOZiTfD80L0QqCLN8LiVYY+W9AoQdGWTz8E5lzBrbMRQb8HI0E55OfAA+oAwSbQlEGas9DBm+8eQpYkWMJ+XKRCxt/PwqTwokLlMcrB
lpc_rms=-41.73
offset=1484
sample=Trumpet_sustain_PP_F#5.opus
tune=-30
</region>

<region>
hivel=127
key=F4
loop_end=165466
loop_mode=loop_continuous
loop_start=52812
loop_xfade=15602
lovel=0
lpc=2i+7QoYgjMNxpZRDuEQBwzvCEkJY6fzB0eaQQVqb8MB8bQNBo5gEwYEOnkChv1fA8KvVP6B9sMBCzklA6MxHQZBevr/PzDbBmRTuwHmhD0HzEwFBUca3wMuaTcDXeyhA
lpc_rms=-50.28
offset=1408
sample=Trumpet_sustain_PP_F4.opus
tune=-32
</region>

<region>
hivel=127
key=F5
loop_end=144461
loop_mode=loop_continuous
loop_start=46108
loop_xfade=13622
lovel=0
lpc=wQPhQp/Ln8MuEdpD2+vPw3PgukPiAJ3DF7loQ99yJsNB3+xCHfMuwrN71MEYPFNCKn/mwV4yxsCPGXlByPAVQcQyCMFeV+TAAcdnQcXyD8JykYNCJX8cwsVy+MAOdY9B
lpc_rms=-39.14
sample=Trumpet_sustain_PP_F5.opus
tune=-49
</region>

<region>
hivel=127
key=G#3
loop_end=169203
loop_mode=loop_continuous
loop_start=54005
loop_xfade=15955
lovel=0
lpc=6uiRQqshL8NXsPhCt/zNwXXhvkFKh6LBlhCYP3OSUsBMOSpA1o5kwA1wI0DKQaQ/hZ7PP91UacCbBF2/1KfHP+YCrj/1eCs/UllYv/StAL6eAuY9RUVNPzUvl8Bi32hA
lpc_rms=-56.35
offset=10109
sample=Trumpet_sustain_PP_G#3.opus
tune=-9
</region>

<region>
hivel=127
key=G#4
loop_end=157851
loop_mode=loop_continuous
loop_start=50382
loop_xfade=14884
lovel=0
lpc=rrzlQsGfx8OijQdErxWvwyfR6ELrskbCYz8tQnZ6lsHgAxVAP/MnwWdicUFHOrs/CJxAwe0u7T/UGhNBCcOpwIjZf767vcQ/6JKZwKHsEsC5kWFAiUqzQdftBMIviVZB
lpc_rms=-45.48
sample=Trumpet_sustain_PP_G#4.opus
tune=-26
</region>

<region>
hivel=127
key=G#5
loop_end=147976
loop_mode=loop_continuous
loop_start=47230
loop_xfade=13953
lovel=0
lpc=7MLPQtURiMPcn6hDpwePw7wgaEO7OTjDaWP7QreopMIEkWRCJjXLwaVntkDMNIjAxqt0QN1hXEDwbnRA6iGfwcbAyUGPTZ7BHXzzQfakLMJqqylCOg0+wobxb0LLMAnC
lpc_rms=-37.59
sample=Trumpet_sustain_PP_G#5.opus
tune=-40
</region>

<region>
hivel=127
key=G3
loop_end=169203
loop_mode=loop_continuous
loop_start=54005
loop_xfade=15955
lovel=0
lpc=KddLQqsK8sLLiKtC2lCmwcPan0HDCnLBxmKbP922h78slb8/W2BAwIRGYD+ZAQg/Bg9mP3H6GMBkqqg+eBgCQGOMkD88L4C/rZDCvTgdAr97uR6/AI1TP9OzAMBvG+g/
lpc_rms=-59.05
offset=13036
sample=Trumpet_sustain_PP_G3.opus
tune=-7
</region>

<region>
hivel=127
key=G4
loop_end=168177
loop_mode=loop_continuous
loop_start=53678
loop_xfade=15858
lovel=0
lpc=f2KjQu0Xg8OcyJtDbdAew6d/MEJPbxLCmD7HQX/vjcBDPY9AIZgGwewDsUAF4LG/+Pj1vxs4i0A0AQrAGzhYPt7ssz/TZiDATEaHwLzKtEBgyGY+s6KZQJVnIcErwZdA
lpc_rms=-49.49
offset=46
sample=Trumpet_sustain_PP_G4.opus
tune=-43
</region>

<region>
hivel=127
key=G5
loop_end=143424
loop_mode=loop_continuous
loop_start=45777
loop_xfade=13524
lovel=0
lpc=x9UGQ1Veu8Ogtu5DRbTJwyjxpEPtQonD27VBQ8vg7MLs2KJC35cuwtW/gEB1901BHCZrvlgYcMEs1/JBBX/YwcWsgEHu4rHB3I1UQvjLksItQqJCP+6swsH0nELOefrB
lpc_rms=-40.50
offset=348
sample=Trumpet_sustain_PP_G5.opus
tune=-20
</region>
</group>

<group>
ampeg_attack=1.5
group_label=MF
lpc_hicc1=127
lpc_locc1=85

<region>
hivel=127
key=A#3
loop_end=166751
loop_mode=loop_continuous
loop_start=53223
loop_xfade=15723
lovel=0
lpc=8DeCQnEpf8MEhtJDUBu3w4meN0PUX6nC1W+KQm8GGsLj5B1AlfnjPqg1AUFzI6XAoxQKwJfEBUEzojTB+mLMQIj8TD86Eqe/e7jXPsqac79XSxrAGELlQEdA18ChqyNA
lpc_rms=-43.60
sample=Trumpet_sustain_MF_A#3.opus
tune=+5
</region>

<region>
hivel=127
key=A#4
loop_end=144080
loop_mode=loop_continuous
loop_start=45987
loop_xfade=13586
lovel=0
lpc=EIAVQpZUFMPY241DyAW1w01YtkOZeJ/D6xh7Q6JzNMP+CvZCGCGtwpe9i0ITRXfCeGFQQmU0MMJdkTdCoUJEwvTUFkJTiFLB8GckwRs3vEHFcdXBmyKmQWVHDcE3TJ4/
lpc_rms=-35.70
sample=Trumpet_sustain_MF_A#4.opus
tune=-21
</region>

<region>
hivel=127
key=A#5
loop_end=167150
loop_mode=loop_continuous
loop_start=53350
loop_xfade=15761
lovel=0
lpc=g2AaQrs0ksKYUbNCRc6bwrFZdUJ8viHCtE/kQZ5vhsGkaWdBVT0dwf2zN0HVqR7BpltRQR0uBMEmxb9Au7CkvpksGEAom8K/c/zuQDmdKsEQyZ5BPry/wa0b6EFqPZPB
lpc_rms=-31.23
offset=252
sample=Trumpet_sustain_MF_A#5.opus
tune=-32
</region>

<region>
hivel=127
key=A3
loop_end=148453
loop_mode=loop_continuous
loop_start=47382
loop_xfade=13998
lovel=0
lpc=ueqVQolBkMMMueVDmiLAwzrxQUODAMLCfGOQQtszHcJSq9xAIM4CQMSlrkDNZ63AyCXjwMBgDEHdqTJAQDXywHVBgkCosve/WUNeQHmfwcB0DqxAcXUOwHfRhj8QZCa/
lpc_rms=-43.63
offset=187
sample=Trumpet_sustain_MF_A3.opus
tune=-3
</region>

<region>
hivel=127
key=A4
loop_end=165839
loop_mode=loop_continuous
loop_start=52932
loop_xfade=15637
lovel=0
lpc=J1xjQkt7X8O2WsBD7Wi9wzcleENRbg7DhK7EQlbWjcIbjy1CVLjJwbNTx0HQaAvCnJwEQgZlc8G4Dps/LQ7VP19AdcCb+S9A+LszQVi9v8E2smRBzWDjQDS4VsGZFKpA
lpc_rms=-36.63
sample=Trumpet_sustain_MF_A4.opus
tune=-11
</region>

<region>
hivel=127
key=A5
loop_end=166566
loop_mode=loop_continuous
loop_start=53164
loop_xfade=15706
lovel=0
lpc=2zULQl4yjsJd8rRCXxaQwoyPU0L9RwTCUWbyQRjx0cHnkABCXh/UwQsAw0EA32fBQ457QVbuOMGN639B4vAzwcS6S0Exi/PAhUFZQex3Q8GZDIhB4+dOwRs/WkH376C/
lpc_rms=-32.16
sample=Trumpet_sustain_MF_A5.opus
tune=-18
</region>

<region>
hivel=127
key=B3
loop_end=149336
loop_mode=loop_continuous
loop_start=47664
loop_xfade=14081
lovel=0
lpc=wkiEQhTMd8PC8sBDtd2gwwf9K0NSM77C0nOEQjwBAcKdWktB0xJYwXmOUUHq9jPBEGElQdtul7+PP//Aip6rQLXf9r6GuZFAweovwalrBEFUfi1A4RYewT/67kBv1QjA
lpc_rms=-43.59
offset=47
sample=Trumpet_sustain_MF_B3.opus
tune=-3
</region>

<region>
hivel=127
key=B4
loop_end=166474
loop_mode=loop_continuous
loop_start=53134
loop_xfade=15697
lovel=0
lpc=/uP3QdiI68KalVlDrA6Hw3zrhkNZsHLDafRRQ0Q+NsPGFCVD8KkWwwjN9ULq26LC/9ExQoCrkcHUgli/8vo4Qdo6Q8HA9gZB7/UDwZJbQUEgFj/BNJ/MQLGlz7/zu9s9
lpc_rms=-33.06
sample=Trumpet_sustain_MF_B4.opus
tune=-11
</region>

<region>
hivel=127
key=B5
loop_end=139973
loop_mode=loop_continuous
loop_start=44676
loop_xfade=13198
lovel=0
lpc=1r87Qqx6hcL8yZpCamOIwmtWZkJRBx3CHrjgQdtIbsFWQzdBL0C6wGPxyEB656Y/wWmNwAzaQEG+sjXBT4hLQV6x5sDxABtBYc0LwSUbWUFH+S3BalQWQZAed0Cj45bB
lpc_rms=-28.44
offset=129
sample=Trumpet_sustain_MF_B5.opus
tune=-20
</region>

<region>
hivel=127
key=C#4
loop_end=167009
loop_mode=loop_continuous
loop_start=53305
loop_xfade=15748
lovel=0
lpc=ZA+BQhrcbcPhBrRDV9mMw8tDA0OdLYTCgow4QvBjG8F6yx7BYb70wM1NukESV2PBR0IUQMOz6z9RTAPBzM4YQTWegD6bPAbAjKkKwZjeQ0FyfojAej3Lv6j+Nj9v2BY/
lpc_rms=-44.60
offset=584
sample=Trumpet_sustain_MF_C#4.opus
tune=+3
</region>

<region>
hivel=127
key=C#5
loop_end=165804
loop_mode=loop_continuous
loop_start=52920
loop_xfade=15634
lovel=0
lpc=UfIBQpz+AcP/dn9DW5upw2ZwtEMsVafDZ9CKQ0UEVMPauxxDpxfqwkxnwkKAX7nCMWK4QhZUs8IumaRClXGKwvWsXEL6axDCxlcBQdPxfEFxhrzBG4yfQeD0O8H7bWRA
lpc_rms=-34.79
offset=723
sample=Trumpet_sustain_MF_C#5.opus
tune=+12
</region>

<region>
hikey=C4
hivel=127
lokey=C4
loop_end=153876
loop_mode=loop_continuous
loop_start=49113
loop_xfade=14510
lovel=0
lpc=o2KHQt67gcO4BNRDPtXBw/ugaUNSivjCleySQkx8F8IOO5NBXDxZwYE9c0Bkcu5AyJ7OwMvgW0Bx8gPBvS8sQVfWosCi1x+/gM1LP5glLUDE/A3BKrVVQRlQFsF3DSBA
lpc_rms=-42.82
offset=1173
sample=Trumpet_sustain_MF_C4.opus
tune=+8
</region>

<region>
hivel=127
key=C5
loop_end=151050
loop_mode=loop_continuous
loop_start=48211
loop_xfade=14243
lovel=0
lpc=pIMYQmvAHcMSfJ1DkfXLw4pWxkOr6KHDJW52QyIkOsMGfAtDgwzAwl16Q0LS2wPAMbcBwo4xQkIVdDHCVy66QQFhnkAcpu3BYXkjQsDr9MEm/O9Av3AFQT04CMGW4idA
lpc_rms=-35.24
offset=79
sample=Trumpet_sustain_MF_C5.opus
tune=+6
</region>

<region>
hikey=F6
hivel=127
lokey=C6
loop_end=137919
loop_mode=loop_continuous
loop_start=44020
loop_xfade=13005
lovel=0
lpc=CAweQuUqU8IcZFVCSN4gwrZ2DUJAmabBh8mIQfI7rsDTYcZATmVjP9BXO0AsaCxATXDfP/HXTUCVexxARUvaP8HQKkAixJdAeBeMwLA9f0Ff3prBHsYFQtlTI8JpxoFB
lpc_rms=-28.85
pitch_keycenter=C6
sample=Trumpet_sustain_MF_C6.opus
tune=-6
</region>

<region>
hivel=127
key=D#4
loop_end=167211
loop_mode=loop_continuous
loop_start=53369
loop_xfade=15767
lovel=0
lpc=DA2BQjD+ecO45s5DCk+8w6rtV0OHmdjC0xKJQg+lE8LUdUpBQ6jIwDyYpkBBboy/j1DkwPcagUG+yIHBap4OQbw1/D2ZNxnB+t4EQTnLi0D7OqDAi2zywCMqLkGOdnLA
lpc_rms=-42.41
sample=Trumpet_sustain_MF_D#4.opus
tune=-9
</region>

<region>
hivel=127
key=D#5
loop_end=143044
loop_mode=loop_continuous
loop_start=45656
loop_xfade=13488
lovel=0
lpc=Rz6UQesCc8If5chCcADpwvIB4kL64MfCcR2lQiUGecLAtzJC+8EGwqmE3kFEhqLBVTgKQR65s0AgGo7BymXHQXpk0cHiwcNBUamqwdwZh0F+XTfBzLX9QA9Ht8BmcjJA
lpc_rms=-29.72
sample=Trumpet_sustain_MF_D#5.opus
tune=-13
</region>

<region>
hivel=127
key=D4
loop_end=166879
loop_mode=loop_continuous
loop_start=53263
loop_xfade=15736
lovel=0
lpc=CSBsQic8VcMdWaBDrcaBwx7SBkOcp4fCxLIpQpI3mcHBc0dAGyqrwDmBjUGrCZHBXwRKP9a3WkHRPFbBaJfyQHfROr64CHq/BdAHwQFEOUGtyeDARV8kQR8kRcGINqRA
lpc_rms=-45.15
sample=Trumpet_sustain_MF_D4.opus
tune=-9
</region>

<region>
hivel=127
key=D5
loop_end=144331
loop_mode=loop_continuous
loop_start=46067
loop_xfade=13609
lovel=0
lpc=48PCQboussIMTCNDGhZQwzwaWEN/VkXDqlokQ8ml/8LhEsFC7LmPwnaBRkLKhODBMpsjQdPnUkAiJDbBlw9fQc5oN8GnbvRAEELTwA4oAEFH1CHBxAU3QQ1dA8EoujhA
lpc_rms=-33.94
sample=Trumpet_sustain_MF_D5.opus
tune=-8
</region>

<region>
hivel=127
key=E4
loop_end=165714
loop_mode=loop_continuous
loop_start=52892
loop_xfade=15626
lovel=0
lpc=b1R8QmJ0b8PbV8JDPjuxwz87U0Ng09DCDtx0QkErKcIn0aBBYi4FwH0ksz+gRW2/16cRwaRNJEGlUmK/PwKHPl3sIMEHj0FBKUwDvwma1MA5SYK/gSIYQc1b58DTmeU/
lpc_rms=-41.36
offset=243
sample=Trumpet_sustain_MF_E4.opus
tune=-5
</region>

<region>
hivel=127
key=E5
loop_end=147388
loop_mode=loop_continuous
loop_start=47042
loop_xfade=13898
lovel=0
lpc=PiwdQpd/AMOFf0xDwblcwxMAS0MENTTDvHkbQ57n+cK8Er1CHyZ7wvY9B0ImS0fBZ20WPrtXz0DydknBgyG2QWAG7sHyAwJCt37mwY37rEH/a4vBzl2TQZ9igcFeLflA
lpc_rms=-31.19
offset=19
sample=Trumpet_sustain_MF_E5.opus
tune=-17
</region>

<region>
hivel=127
key=F#3
loop_end=161799
loop_mode=loop_continuous
loop_start=51642
loop_xfade=15257
lovel=0
lpc=MH+BQncZUMN6X35D8soaw8TlnUITdmnCT5vjQWHpHMFddw9BAca/wIEfvj/Ases+FlaPQGmS7cDQbwBAewRvP/eh9L7scc0+7Lumv8lbI0CujDvA/VO7QDBd58A1dUBA
lpc_rms=-49.79
sample=Trumpet_sustain_MF_F#3.opus
tune=+24
</region>

<region>
hivel=127
key=F#4
loop_end=156986
loop_mode=loop_continuous
loop_start=50106
loop_xfade=14803
lovel=0
lpc=cf5SQk5bP8OH/5JDaY9/w2/yH0PJ/M/CwLWTQuuaEMJC2bA/TIG3QIaV9EA2GSvBpNKCwNSiNkE+h1dACfJMwc4fk8B6C6hBSLRgwW1h+z+y5KA/LDIBP4/eB8AVeqc/
lpc_rms=-43.11
offset=396
sample=Trumpet_sustain_MF_F#4.opus
tune=-22
</region>

<region>
hivel=127
key=F#5
loop_end=140076
loop_mode=loop_continuous
loop_start=44709
loop_xfade=13208
lovel=0
lpc=LEQnQq/Q5sK+pSZDpuImw12MEkP1jO/CJFq7QtBRhcLgxkZCpw8Vwq1u70HThKTB+Ow+QTovgj+34r/AWlK7QFvYssAuBGtBQ+SVwRrRoUEUXrzB6LsHQsvJ/8G9zoRB
lpc_rms=-32.20
offset=18
sample=Trumpet_sustain_MF_F#5.opus
tune=-29
</region>

<region>
hivel=127
key=F4
loop_end=146121
loop_mode=loop_continuous
loop_start=46638
loop_xfade=13778
lovel=0
lpc=0e+gQg98k8NfiuBDwCa9wxctXkNb8QPD8ya9Qr97dsLm7MxBonZXwZziiUGO9uLADr8TwBLq+z/GsHXAdf29P3fjPkBZuiu/neaSv7c0+b1HExlAwAt/wPek3z9M5tc+
lpc_rms=-40.61
sample=Trumpet_sustain_MF_F4.opus
tune=-29
</region>

<region>
hivel=127
key=F5
loop_end=140898
loop_mode=loop_continuous
loop_start=44971
loop_xfade=13286
lovel=0
lpc=bC35QWx7vMJ35RFD0l4ew+grE0PrvfTClNy0QqvwacL44RhC7OblwTFu3EFsysXBiFijQdKBlsGzbKxBmjuuwaLGpUGJ0R/BpwwdwQqf7EEq8x/ChlMqQmEZ/sECjVBB
lpc_rms=-32.11
offset=287
sample=Trumpet_sustain_MF_F5.opus
tune=-30
</region>

<region>
hivel=127
key=G#3
loop_end=147833
loop_mode=loop_continuous
loop_start=47184
loop_xfade=13940
lovel=0
lpc=f3qoQrSdlsMc4ddD2rWhw6M1KUOSy9XCkHyGQv5N7MHvYYRBANBSwVy9NEFBRQvBEfeOQPdFRcD8Poi/XsTDQDrDgsDhr6M/YSqUwNKD7kBL9ejAv3I0QduSRMEsDJtA
lpc_rms=-42.97
offset=901
sample=Trumpet_sustain_MF_G#3.opus
tune=-16
</region>

<region>
hivel=127
key=G#4
loop_end=167730
loop_mode=loop_continuous
loop_start=53535
loop_xfade=15816
lovel=0
lpc=tiIyQuAgK8Pp6ZFDowWNwwCjJkNrAIPC2w/fQb13psHkAzBBeIrAP0KYncD/h0ZAxlDPwI6+JUEjJwXB6xx9QJjUFUBUAivBhnouQVQHh0CLSsjBQDMKQtVIxME9dPlA
lpc_rms=-39.88
sample=Trumpet_sustain_MF_G#4.opus
tune=-35
</region>

<region>
hivel=127
key=G#5
loop_end=138956
loop_mode=loop_continuous
loop_start=44351
loop_xfade=13103
lovel=0
lpc=5YWEQl0zHcN4/0RDks4nw2MlAkOOAKvCpplNQppe38Gy+MBBKxyWwS/jpkGCzXbB/cGNQbOieMFfnXxB4k0Rwa5cVUHjXkDBOwJ5QWwTTsGwhIxBGuymwXrdzUE7awHB
lpc_rms=-33.10
sample=Trumpet_sustain_MF_G#5.opus
tune=-30
</region>

<region>
hivel=127
key=G3
loop_end=155270
loop_mode=loop_continuous
loop_start=49558
loop_xfade=14641
lovel=0
lpc=9bxiQgKmSsPsW5NDgXRew48E2kI+LH/CmnkiQtMuScEG/4FAc3WvwLjLW0Ap2ULALbMdQLAAwLs8FYy+BMcGPvnngr3+doS/RD+dv18ckkAqIwnABhLIvwLZxj+/4KG+
lpc_rms=-47.78
sample=Trumpet_sustain_MF_G3.opus
tune=+6
</region>

<region>
hivel=127
key=G4
loop_end=165326
loop_mode=loop_continuous
loop_start=52768
loop_xfade=15589
lovel=0
lpc=FxpEQuDaKcO4D3VDtVwzwxbIbkKX0ylB23zOwRMBFkEAZTFBT/0hwZWS7D+FzKs9hQ5LwCF7kUC7aUY+94A0wG1MvD8ZWdg/iaLzv4QBT8BBsItACeR4QLhVA8FeAGhA
lpc_rms=-39.00
offset=17
sample=Trumpet_sustain_MF_G4.opus
tune=-36
</region>

<region>
hivel=127
key=G5
loop_end=143800
loop_mode=loop_continuous
loop_start=45897
loop_xfade=13559
lovel=0
lpc=+9tfQtspCMO4EDlDWpMsw+WnC0MSGsHC5jKDQk/HFcIOHshBUoSCwYA4h0HZaw3BkuUNQWUM1MBCXkFBmZ0nwfDhL0Hsd0PAWfiUPiWhdEHtEu/BR902QqXqI8L8ecNB
lpc_rms=-29.23
sample=Trumpet_sustain_MF_G5.opus
tune=-15
</region>
</group>

<group>
ampeg_attack=1.5
group_label=FF
lpc_hicc1=84
lpc_locc1=43

<region>
hivel=127
key=A#3
loop_end=143534
loop_mode=loop_continuous
loop_start=45812
loop_xfade=13534
lovel=0
lpc=EQbtQRnj3cKt+EZDeP1swyzXXUNzaTDDue3tQi8SdMJhk29BhUUTQfCNQsESLKtAjRofPwRdO8D5/XBAvxtKwER1kD4RA4lAuq36wBXt7kCI8lPA6oUAv7qdmj+VlcS+
lpc_rms=-36.44
offset=539
sample=Trumpet_sustain_FF_A#3.opus
tune=+32
</region>

<region>
hivel=127
key=A#4
loop_end=166933
loop_mode=loop_continuous
loop_start=53281
loop_xfade=15741
lovel=0
lpc=atIGQaUsuMESbvhBWujqwYtjyUH0FafBzYB1QV4DGsE2xe9Au7cAwZclDUHoygbBRHIEQWh+/MDwA/BAhA7lwJn8wUDaUY3AvOiBQMIck8CQm5JACrE3wFA4Zj+y1hI9
lpc_rms=-29.40
offset=5
sample=Trumpet_sustain_FF_A#4.opus
tune=-17
</region>

<region>
hivel=127
key=A#5
loop_end=140324
loop_mode=loop_continuous
loop_start=44788
loop_xfade=13232
lovel=0
lpc=tMTmQV0nC8JCw0ZC5x4SwsTUHkI7E7fBCRbYQSDQUsG/gKVBdmYbwUUZnUHVYB/Bve6VQQDjr8AvYjJBzQP8P3FtzECEF2BAdW/1QDAzvr5k8FVBMfq+wJw/eEHXd5i9
lpc_rms=-26.53
offset=100
sample=Trumpet_sustain_FF_A#5.opus
tune=-33
</region>

<region>
hivel=127
key=A3
loop_end=168463
loop_mode=loop_continuous
loop_start=53769
loop_xfade=15885
lovel=0
lpc=CoHBQbfLscIKsCBDqJZFw4oSQ0MqySXDHcr2QlxRoMJ+0zRCjC2jwfT6q0Bfw/s/E+KZwETin0CESPG/xDjdv4eXyT93lj1Ap0MUwdf9a0HO133B74Y8QY9WrcAE+ZM/
lpc_rms=-35.50
offset=420
sample=Trumpet_sustain_FF_A3.opus
tune=+34
</region>

<region>
hivel=127
key=A4
loop_end=166786
loop_mode=loop_continuous
loop_start=53234
loop_xfade=15727
lovel=0
lpc=wIaDQZ48V8L5oq1CvyXGwg41wELrIKrC1gyOQqStW8K5RhVCLKuowbOwEEHmpRnAEXzMvjFBNEDiIF3AkTfJP1mNZ75z0Is/+oBnwNA9vkD+zr7AI1iQQI/rI8C9mGo/
lpc_rms=-28.14
offset=350
sample=Trumpet_sustain_FF_A4.opus
tune=-44
</region>

<region>
hivel=127
key=A5
loop_end=168429
loop_mode=loop_continuous
loop_start=53758
loop_xfade=15882
lovel=0
lpc=sYmDQUye18HFlQ9CoM7nwfwvz0FNno/BjNKbQed4asH6TnxBmMkXwecTKEFI8avAq0X0QAfQO8DWq6dAGrYdv/INLUCHouo/77SUP9mmCkBBT18/bjGPQO5HYcDPZuNA
lpc_rms=-33.32
sample=Trumpet_sustain_FF_A5.opus
tune=-15
</region>

<region>
hivel=127
key=B3
loop_end=166401
loop_mode=loop_continuous
loop_start=53111
loop_xfade=15691
lovel=0
lpc=7uMUQiswDMOjIm1D5YZywwN2M0NuYurCtbCcQpTNSMIjA9JBa+tHwayAI0G9ziDBKlLTQI7LgMAfq49A4P2TwP+yM0BJZns+7m+DwAOv8UDzrwnBQ7bCQDi4D8AGuYE+
lpc_rms=-43.36
sample=Trumpet_sustain_FF_B3.opus
tune=+20
</region>

<region>
hivel=127
key=B4
loop_end=141565
loop_mode=loop_continuous
loop_start=45184
loop_xfade=13349
lovel=0
lpc=m1urQcVwl8JgyQNDZ8oZw1bfC0Nng9TCaFOLQpsCLMISK+ZBOE6qwdmNj0FdOqXB2fDbQRp9B8L24B5CPGsvwj9SMEI8hSbCeWsTQra318FvT1RBRg6zv0TzKcA2Orw/
lpc_rms=-29.77
offset=7
sample=Trumpet_sustain_FF_B4.opus
tune=-8
</region>

<region>
hivel=127
key=B5
loop_end=143377
loop_mode=loop_continuous
loop_start=45762
loop_xfade=13519
lovel=0
lpc=x3WPQdqQU8ESqIlBQiPewN4TKkEX9f2/RHf0QFzaP789heZABKKFPSYls0Bu8QlATSJ7QEAQEUC1ObBAwhY8Po0m20CMzyy+CrzYQOWAFb8YDAhBhmR4wIwHUUGu3NzA
lpc_rms=-26.85
sample=Trumpet_sustain_FF_B5.opus
tune=+5
</region>

<region>
hivel=127
key=C#4
loop_end=145267
loop_mode=loop_continuous
loop_start=46365
loop_xfade=13698
lovel=0
lpc=Di5dQTdcMsJojItC2TiXwvNRjELy4nPCeGxFQrcIE8JxXdRBy5WhwYgRh0FFmWfB7kA5Qc8LCMHNB7lANVtuwL2q4z8yIRw/LogGwDJiQECl9oHAT6OFQOoWLMAD/F8/
lpc_rms=-36.42
offset=31
sample=Trumpet_sustain_FF_C#4.opus
tune=+14
</region>

<region>
hivel=127
key=C#5
loop_end=167078
loop_mode=loop_continuous
loop_start=53327
loop_xfade=15754
lovel=0
lpc=jQqPQW7Qb8JPgrpCusiywiavgEKD2znC0uwoQkJQJMIaGg5C6+nLweCriEH2vmjBybh0QZCPdcEtqIJBshaVwWkUkkFIFWXBD/4zQV6tKsF6zyZBEuXLwDt+jj+LUgs/
lpc_rms=-32.18
sample=Trumpet_sustain_FF_C#5.opus
tune=+10
</region>

<region>
hikey=C4
hivel=127
lokey=C4
loop_end=159592
loop_mode=loop_continuous
loop_start=46670
loop_xfade=13788
lovel=0
lpc=jg3jQSiu1MISVDxDBNFawwmQSUMPASTDRtDxQruoosIrHE9C+PgFwgjXuUHKG3bBtIAWQe8R5sDuixJBJcFXwYJnckFhlh7BXj4cQM5loL7LXxpAsj9HwJdj1z+XKti+
lpc_rms=-40.35
offset=616
sample=Trumpet_sustain_FF_C4.opus
tune=+13
</region>

<region>
hivel=127
key=C5
loop_end=153793
loop_mode=loop_continuous
loop_start=53111
loop_xfade=15691
lovel=0
lpc=gBcqQatQ+sGApTRCShg4wi4cIUKGTf7BypK4QaenfcE39SxBPd8JwY5EFEHSBhbBAtDSQBCqHsC3Kna+AcEEQFHcVsBTXpBAghqswOjzsUD17bXA3r+8QCHIicBVYsc/
lpc_rms=-31.37
offset=40
sample=Trumpet_sustain_FF_C5.opus
</region>

<region>
hikey=F6
hivel=127
lokey=C6
loop_end=151010
loop_mode=loop_continuous
loop_start=43742
loop_xfade=12923
lovel=0
lpc=EwMZQrZ0VsJcdEhC69cXwhh0G0LjGd/BBD3uQVIancFicLFBaRpDwcaWbkHdfMLAaAUnQQzjE8CAWtNAcp+YP1uoYkD+iJVA0AG/v5N0OkHrtSjB+uXFQd/pG8J29cBB
lpc_rms=-29.11
pitch_keycenter=C6
sample=Trumpet_sustain_FF_C6.opus
tune=-25
</region>

<region>
hivel=127
key=D#4
loop_end=164906
loop_mode=loop_continuous
loop_start=52634
loop_xfade=15550
lovel=0
lpc=LS71Qar72MI7kDJDBW48wxZzGEM1hNLCFIuAQmeSBMJnhVNBhpZhwHYYib7fwQ5AkCJJwHykjEASd2jAPDmlvj1nhkDeGnPA+xiQP09vnT45Xdi/vW9YQO8ENsCZyoc/
lpc_rms=-35.21
offset=150
sample=Trumpet_sustain_FF_D#4.opus
tune=-2
</region>

<region>
hivel=127
key=D#5
loop_end=141348
loop_mode=loop_continuous
loop_start=45115
loop_xfade=13328
lovel=0
lpc=4YqRQQGObsJpXcRCfPzjwqzI4EJJj8vCVwCtQvSjiMLGJ05CCtUbwueD8kH/+bLBB1l7QZw5LMFefwdBEcT4wPLn90CqtAfBkSQPQUj1ZMAuwM/AaWFHQcV/GsFedGVA
lpc_rms=-26.91
offset=577
sample=Trumpet_sustain_FF_D#5.opus
tune=-7
</region>

<region>
hivel=127
key=D4
loop_end=166857
loop_mode=loop_continuous
loop_start=53256
loop_xfade=15734
lovel=0
lpc=li3+QbTl58IygURDzRlPw6TDHENpYLvC54Q+QmkLpMH916ZAK2iNQN3YGMGsojhBjGMswQhA5EDrRBW+t/LswMiqMUHy3BvBKH7LQP8xLcAXtHY/qZl1vwCVMD8Joqy9
lpc_rms=-39.25
offset=343
sample=Trumpet_sustain_FF_D4.opus
tune=-20
</region>

<region>
hivel=127
key=D5
loop_end=142922
loop_mode=loop_continuous
loop_start=45617
loop_xfade=13477
lovel=0
lpc=6g0JQe1esMEck99BpSvNwVx9qEFTVnHB2wYwQSymEsEbiABB+wDOwK1ckkC1ewPAl48wP0zsr7+YVYhAxf7JwPUh3kA5x8/AkfKFQMjybb9IoYW/wozrPxIz2b9MgEo/
lpc_rms=-29.59
offset=1467
sample=Trumpet_sustain_FF_D5.opus
</region>

<region>
hivel=127
key=E4
loop_end=166122
loop_mode=loop_continuous
loop_start=53022
loop_xfade=15664
lovel=0
lpc=GAKlQfiwlMJqVwJD9Nobw9pQGEOUhgTD6XrQQu9zlsLrE1dCi6Elwg0TCkJsOu/BU+DUQeqtxMGhZLBBU6OFwR/rBEHhm7M/N6onwVCBiUHjeJLBB+RKQa3Pn8BASFU/
lpc_rms=-33.43
offset=248
sample=Trumpet_sustain_FF_E4.opus
tune=-3
</region>

<region>
hivel=127
key=E5
loop_end=139474
loop_mode=loop_continuous
loop_start=44516
loop_xfade=13151
lovel=0
lpc=xDsZQYhr0cHR8A1C92oIwjf98kGFqtXB/+a3QaxXlMFvVWJBX7IoweSrDEFqos7AI+FYQJKsh79rNyY/afhqPlHuC8AmeplAez/TwE8390CzxP/ACgwAQVPlwsA84iVA
lpc_rms=-27.37
offset=274
sample=Trumpet_sustain_FF_E5.opus
tune=-5
</region>

<region>
hivel=127
key=F#3
loop_end=168071
loop_mode=loop_continuous
loop_start=53644
loop_xfade=15848
lovel=0
lpc=WDQAQmUV9MLFFF1D52uCwwKCbUOPNDrDhXgCQ3OOoMJuSTFCvgnPweT9n0HJqHTBLeyvQDWxoEBVYBXBn9XcQHRl0788ILW/bxpHv8oWYkCh+EzAulY4QEW7M8CgjpU/
lpc_rms=-40.70
offset=64
sample=Trumpet_sustain_FF_F#3.opus
tune=+28
</region>

<region>
hivel=127
key=F#4
loop_end=166831
loop_mode=loop_continuous
loop_start=53248
loop_xfade=15731
lovel=0
lpc=svSAQTtiXsJgXsBCGv7nwvrQ6UIyRtLCP6yrQilVg8LnFUpC6zoewuP87EEQwaHBztpgQeFINMF7OCVBp3QcwQ3qCkGvuerA3DjjQMyw4cD2saJAT2cJwK658D56Q8S9
lpc_rms=-33.22
offset=292
sample=Trumpet_sustain_FF_F#4.opus
</region>

<region>
hivel=127
key=F#5
loop_end=118198
loop_mode=loop_continuous
loop_start=37726
loop_xfade=11145
lovel=0
lpc=3Ik3QQ3a3sHEmhNC1CUQwmmUAUKE5c/BVumfQZDkYsGr3RhBVO2ywJT4fEDsKQrA3MLfPyev+79FroBAn5GuwCiQ8kCCIwPB8nsBQakXsMC97kNAMGOCP/mwaMAQr0RA
lpc_rms=-28.36
offset=533
sample=Trumpet_sustain_FF_F#5.opus
tune=-6
</region>

<region>
hivel=127
key=F4
loop_end=148076
loop_mode=loop_continuous
loop_start=47262
loop_xfade=13963
lovel=0
lpc=KctnQTjaNsK2eItC1IOUwiMgiULF6GvCbA87QkajD8LLl/ZBqnDmwWBIxkGUu5HBAss0QZNfi8BCiK+/SIR0QASREsBAiAG/wsY/P5VwpT8GqzTAm+QvQNZU6L8jxyE/
lpc_rms=-32.54
offset=19
sample=Trumpet_sustain_FF_F4.opus
tune=-3
</region>

<region>
hivel=127
key=F5
loop_end=162074
loop_mode=loop_continuous
loop_start=46209
loop_xfade=13651
lovel=0
lpc=Ul5gQRMvJMIBJHFCh/tvwg69UUJPcDXCy7EYQn103sGFB3RBiXSZvzc+BsGVETxBx+4dwRNMB0GqkhXBS4Q+QQWdQMHQXSFB/QvuwBLVzEALwfHAwugqQVPaGcFAjIlA
lpc_rms=-29.71
offset=294
sample=Trumpet_sustain_FF_F5.opus
tune=-22
</region>

<region>
hivel=127
key=G#3
loop_end=167051
loop_mode=loop_continuous
loop_start=53318
loop_xfade=15752
lovel=0
lpc=JI4IQodeBMNA/HJDHdGPw9m3f0MVwTjDmFfcQmEOR8JRkANBxDNgQXiYj8GuoQ9BI6ROQBw3PcHw6HpB/vaDwR1fhkFzp5fBInipQXUTmMHmbFJBQxEHwTUYpUDEZdO/
lpc_rms=-37.35
offset=850
sample=Trumpet_sustain_FF_G#3.opus
tune=+16
</region>

<region>
hivel=127
key=G#4
loop_end=141446
loop_mode=loop_continuous
loop_start=45146
loop_xfade=13337
lovel=0
lpc=x7guQbP198FRyCxC3kAuwp1ZIUIXeQnCjyLQQWuVnMG5WoxBc22FwbWTekFFLWvBbOlSQYrEI8G/UQZBa6n7wEJV5kAN8L7Ad1WgQNFKbcAiKfw/9rsmvpwTnb/v6ok/
lpc_rms=-31.88
sample=Trumpet_sustain_FF_G#4.opus
tune=-5
</region>

<region>
hivel=127
key=G#5
loop_end=162847
loop_mode=loop_continuous
loop_start=53717
loop_xfade=15870
lovel=0
lpc=3a0gQe4/h8GqaJtBel2DwbC3dUHWczXBDpcVQVoAn8AaSGxAt6xWv3SQUT93Tag/GSQ6v74cIEDJTuq/v8JOQEXpAsDVgFtA+MUnwFZAikA3/XHAMF6xQIUYksDRA49A
lpc_rms=-27.55
sample=Trumpet_sustain_FF_G#5.opus
tune=+3
</region>

<region>
hivel=127
key=G3
loop_end=167990
loop_mode=loop_continuous
loop_start=53618
loop_xfade=15840
lovel=0
lpc=2RcRQlVUDMPhiYBD8vSXw2hGh0NpKUXDnXn0QvmZhcKVrQhCA8SNwbiaREED+hjBYxQjQGW3iUA8N5TAex+lv1Ic/ED4CBfB29vZQARdksCCR3hAoCA0wJU0mz8WOB2+
lpc_rms=-37.65
offset=198
sample=Trumpet_sustain_FF_G3.opus
tune=+29
</region>

<region>
hivel=127
key=G4
loop_end=167793
loop_mode=loop_continuous
loop_start=53555
loop_xfade=15822
lovel=0
lpc=U24MQRRTzsH0CB5CxvIuwiRPKEIbHRHCzm/fQXQamsGUeFRBlt0hwVes7UBEh4nAbBISQK7y0L9MqgJAkfttwI7TxUBC7vXAv27RQA+NZcAdb58/tGohuwspx76O2L4+
lpc_rms=-34.54
offset=59
sample=Trumpet_sustain_FF_G4.opus
tune=-9
</region>

<region>
hivel=127
key=G5
loop_end=158873
loop_mode=loop_continuous
loop_start=45257
loop_xfade=13370
lovel=0
lpc=9acrQZkzvsGZsOxBxQzOwf8FqkHvZoDBA11DQYP8+cD1RKlA5IUEwC1DzD8ISqm/I6gnQLKPB8DfgeA/iDdHP4q5/b/enFFAlNMuwDzMS0CqUzTA7AaiQCEhssAOkYFA
lpc_rms=-31.34
offset=649
sample=Trumpet_sustain_FF_G5.opus
tune=-4
</region>
</group>